<?xml version="1.0" encoding="UTF-8" standalone="no"?>
<svg
   width="1496.3529"
   height="820.80682"
   viewBox="0 0 1496.3529 820.80682"
   fill="none"
   version="1.1"
   id="svg442"
   sodipodi:docname="bg_img_diag.svg"
   inkscape:version="1.2.1 (9c6d41e410, 2022-07-14)"
   inkscape:export-filename="bg_img_diag.svg"
   inkscape:export-xdpi="96"
   inkscape:export-ydpi="96"
   xmlns:inkscape="http://www.inkscape.org/namespaces/inkscape"
   xmlns:sodipodi="http://sodipodi.sourceforge.net/DTD/sodipodi-0.dtd"
   xmlns:xlink="http://www.w3.org/1999/xlink"
   xmlns="http://www.w3.org/2000/svg"
   xmlns:svg="http://www.w3.org/2000/svg">
  <sodipodi:namedview
     id="namedview444"
     pagecolor="#505050"
     bordercolor="#eeeeee"
     borderopacity="1"
     inkscape:showpageshadow="0"
     inkscape:pageopacity="0"
     inkscape:pagecheckerboard="0"
     inkscape:deskcolor="#505050"
     showgrid="false"
     inkscape:zoom="0.92044849"
     inkscape:cx="162.42082"
     inkscape:cy="441.08932"
     inkscape:window-width="1920"
     inkscape:window-height="1017"
     inkscape:window-x="1272"
     inkscape:window-y="-8"
     inkscape:window-maximized="1"
     inkscape:current-layer="svg442" />
  <defs
     id="defs440">
    <linearGradient
       inkscape:collect="always"
       id="linearGradient12124">
      <stop
         style="stop-color:#e4ba59;stop-opacity:1;"
         offset="0"
         id="stop12120" />
      <stop
         style="stop-color:#987121;stop-opacity:1;"
         offset="1"
         id="stop12122" />
    </linearGradient>
    <linearGradient
       inkscape:collect="always"
       xlink:href="#linearGradient12124"
       id="linearGradient12126"
       x1="1.5364397"
       y1="321.11591"
       x2="566.94623"
       y2="321.11591"
       gradientUnits="userSpaceOnUse"
       gradientTransform="matrix(1.525949,0,0,1.525949,-415.72325,-1083.0247)" />
    <clipPath
       clipPathUnits="userSpaceOnUse"
       id="clipPath15068">
      <path
         id="path15070"
         style="stroke:#000000;stroke-width:0.870642"
         d="M -0.37405535,-1.6794001 70.050454,-72.103924 c -2.071496,-0.0508 -4.142738,-0.0943 -6.215339,-0.178834 -30.735437,-1.112033 -61.4753539,-2.882931 -92.121436,-5.988631 -1.504325,-0.175133 -2.439528,-0.28604 -3.777735,-0.438685 -15.165923,0.378332 -30.411403,0.569374 -45.588156,-0.247482 z M -385.59493,-386.90027 c 4.26881,-0.30967 8.54339,-0.564 12.81079,-0.88125 7.71324,-0.50085 15.3902,-1.35718 23.09969,-1.88996 6.18761,-0.37555 12.37631,-0.81414 18.50077,-1.71919 6.10098,-0.9571 12.08707,-2.43023 18.13277,-3.64615 7.69481,-1.71841 15.50112,-2.91982 23.3321,-3.9209 7.20659,-1.08484 14.48252,-1.57912 21.76773,-1.96603 6.12606,-0.28215 12.25979,-0.48688 18.40015,-0.40556 5.54667,0.12005 11.09284,0.23975 16.63744,0.53735 6.62207,0.14501 13.07989,1.66829 19.46942,3.39121 4.25568,1.10651 8.26044,2.91139 12.30052,4.62041 3.1211,-4.1742 8.43216,-6.87592 15.77452,-5.92521 0.68151,0.0882 1.36441,0.17755 2.04588,0.26578 5.02083,0.61977 10.04632,1.16134 15.05569,1.89879 4.52194,0.57226 9.04887,1.12354 13.58537,1.53146 3.80025,0.36406 7.60683,0.62499 11.41282,0.89878 3.71432,0.40972 7.43974,0.62802 11.16086,0.94985 4.72078,0.37156 9.38349,1.13514 14.03529,2.07696 5.20654,1.04627 10.4229,2.02604 15.64652,2.97286 5.374033,0.87407 10.770867,1.57385 16.1572,2.35324 5.121181,-0.36608 10.236732,-0.80091 15.34606,-1.29733 7.474462,-0.7939 14.947038,-1.66186 22.384686,-2.71692 5.558576,-0.91825 11.090778,-1.97733 16.636291,-2.96391 5.389342,-0.93277 10.771252,-1.87968 16.201578,-2.58502 4.949265,-0.67431 9.9508003,-0.83407 14.94144266,-1.07946 5.97200404,-0.25131 11.97380434,-0.0467 17.95742934,0.1264 6.87202,0.0528 13.74487,0.15081 20.61699,0.23595 7.109405,0.1721 14.217298,0.52918 21.303741,1.2585 6.041408,0.59647 12.048724,1.52714 18.075301,2.26736 5.440991,0.7343 10.906096,1.22732 16.373187,1.64369 4.891144,0.36338 9.777064,0.80395 14.671974,1.09734 5.43047,0.29964 10.86451,0.36042 16.29591,0.59445 5.9128,0.31147 11.82673,0.56454 17.742,0.7546 5.43764,0.17468 9.52428,2.15839 12.36273,5.02393 0.77801,-0.0386 1.54881,-0.15105 2.32818,-0.17543 4.47401,-0.24217 8.96187,-0.32429 13.35317,-1.24802 5.12152,-0.71108 10.24632,-1.41957 15.40349,-1.87604 4.45546,-0.43092 8.92883,-0.81752 13.4207,-0.73274 5.67689,-0.11325 11.36206,-0.0963 17.02371,-0.50427 4.24588,-0.22449 8.4812,-0.58819 12.68035,-1.21098 6.17665,-0.91611 11.11306,0.80148 14.64674,3.79688 6.06196,-1.052 12.1196,-2.12523 18.195,-3.10887 7.48192,-1.20183 14.97604,-2.32792 22.52253,-3.11417 6.91024,-0.74641 13.88506,-0.36543 20.82934,-0.035 4.81426,0.21594 9.61765,0.69469 14.42818,1.00374 4.86254,0.37966 9.71717,0.854 14.57365,1.32118 4.62196,0.17727 9.2239,0.74045 13.81887,1.3063 4.00278,0.41984 7.96956,1.14247 11.94239,1.79966 3.17932,0.48056 6.36977,0.85262 9.54695,1.35356 3.85248,0.80061 7.72932,1.40574 11.63321,1.78259 L 450.21915,-452.27263 43.828881,-858.6629 -406.76433,-408.06969 Z" />
    </clipPath>
  </defs>
  <rect
     style="fill:#000000;fill-opacity:1;fill-rule:nonzero;stroke:#000000;stroke-width:0.348;stroke-dasharray:none"
     id="rect15055"
     width="1494.9558"
     height="820.4588"
     x="0.17399999"
     y="0.17399999" />
  <path
     id="rect10040"
     clip-path="url(#clipPath15068)"
     style="fill:url(#linearGradient12126);fill-opacity:1;fill-rule:nonzero;stroke-width:0.53103;stroke-dasharray:none"
     d="m -413.37919,-100.66894 255.12678,0.002 -255.1273,-255.1273 z m 314.455299,1.4e-4 197.667512,-10e-6 277.879849,-277.87985 -761.47716,-8.04995 z m -304.770749,-304.77075 785.95987,8.31019 -3.1957,-3.1957 -782.2678,-8.27115 -1.82652,1.82651 z m 13.75975,-16.42004 755.45757,7.98768 -5.84205,-5.84205 -743.89572,-7.86543 z m -23.44375,-37.29959 69.28874,-69.28875 -3.99008,-0.0422 -0.14173,-13.40512 17.39519,0.18392 17.86926,-17.86925 -96.08473,-1.01593 -0.14174,-13.40512 109.48985,1.15767 19.38862,-19.38862 -120.6433,-1.2756 -0.14174,-13.40511 134.04842,1.41733 20.14761,-20.14762 -149.80729,-1.58395 -0.14174,-13.40512 163.21241,1.72569 23.94398,-23.94398 -203.69266,-2.1537 z m 42.42693,18.31641 717.08549,7.58196 -8.16911,-8.16911 -700.91822,-7.41102 z m 21.26154,-21.26155 674.10799,7.12755 -11.27139,-11.27139 -651.80107,-6.89169 z m 24.29891,-24.29891 624.99084,6.60822 -12.82322,-12.82322 -599.61273,-6.33989 z m 25.81827,-25.81827 572.8025,6.05642 -15.92411,-15.92411 -541.2875,-5.7232 z m 459.05918,411.55345 289.92155,9e-5 2.4e-4,-230.39435 -20.83059,-20.83059 -0.53785,0.53785 -8.93317,-8.93317 z m -572.86401,-577.74017 216.9543,2.29392 26.98134,-26.98134 -180.50551,-1.90854 -0.14037,-13.40648 193.91062,2.05027 28.49935,-28.49934 -283.34523,-2.99589 -0.14037,-13.40649 296.75034,3.13763 36.852436,-36.85243 -315.577656,-3.3367 -0.14174,-13.40511 328.982777,3.47843 17.725917,-17.72592 -6.345382,-6.34538 0.537852,-0.53785 -76.777594,-76.77759 89.130582,-89.13058 27.051879,27.05188 0.724872,-0.72487 56.071092,56.07109 13.689295,-13.68929 30.371667,30.37167 -13.689295,13.68929 80.058338,80.05834 295.15817,3.12079 -0.004,-282.56169 -862.78554,4e-4 z m 142.6591,137.33245 514.47727,5.43973 -18.25117,-18.25117 -478.35685,-5.05781 z m 31.13263,-31.13263 451.54662,4.77434 -19.80301,-19.80301 -412.35499,-4.35995 z m 32.652,-32.652 385.54476,4.07648 -20.57822,-20.57822 -344.81892,-3.64588 z m 33.411,-33.411 318.00868,3.3624 -24.45572,-24.45572 -269.60898,-2.85066 z m 37.20736,-37.20736 242.79875,2.56719 -27.558009,-27.55801 -188.259391,-1.99052 z m 40.246091,-40.24609 161.446402,1.70702 -29.108447,-29.10844 -103.838612,-1.09792 z m 41.764089,-41.76409 77.025618,0.81442 -37.640065,-37.64007 -2.53312,-0.0268 z m 503.71301,246.71521 10e-4,-9.2843 -9.38469,-0.0992 z m -22.93037,-22.93038 22.93053,0.24246 -5.6e-4,-18.0582 -41.18114,-0.43542 z m -31.79802,-31.79802 54.72974,0.57868 10e-4,-19.59361 -74.53388,-0.78807 z m -33.34986,-33.34985 88.07974,0.93129 -10e-4,-20.36066 -108.65651,-1.14885 z m -34.12508,-34.12508 122.20512,1.29211 -2.3e-4,-64.86739 -187.76547,-1.9853 27.55801,27.558 127.72665,1.3505 0.14174,13.40511 -114.32154,-1.20875 z m -79.10883,-79.10883 201.31407,2.12856 3.6e-4,-28.80067 -230.42287,-2.43634 z m -42.65669,-42.65669 243.97148,2.57958 7.8e-4,-37.24208 -281.61233,-2.97757 z"
     transform="matrix(-0.70229513,0.71537424,-0.70229513,-0.71537424,925.63599,263.66775)" />
</svg>
