<?xml version="1.0" encoding="UTF-8" standalone="no"?>
<svg
   width="568"
   height="643"
   viewBox="0 0 568 643"
   fill="none"
   version="1.1"
   id="svg442"
   xmlns:xlink="http://www.w3.org/1999/xlink"
   xmlns="http://www.w3.org/2000/svg"
   xmlns:svg="http://www.w3.org/2000/svg">
  <defs
     id="defs440">
    <linearGradient
       id="linearGradient12124">
      <stop
         style="stop-color:#e4ba59;stop-opacity:1;"
         offset="0"
         id="stop12120" />
      <stop
         style="stop-color:#987121;stop-opacity:1;"
         offset="1"
         id="stop12122" />
    </linearGradient>
    <linearGradient
       xlink:href="#linearGradient12124"
       id="linearGradient12126"
       x1="1.5364397"
       y1="321.11591"
       x2="566.94623"
       y2="321.11591"
       gradientUnits="userSpaceOnUse"
       gradientTransform="matrix(1.525949,0,0,1.525949,-415.72325,-1083.0247)" />
    <clipPath
       clipPathUnits="userSpaceOnUse"
       id="clipPath14734">
      <path
         id="path14736"
         style="stroke:#000000;stroke-width:0.870642"
         d="M -0.37392615,-1.6786418 70.050587,-72.103155 c -2.071499,-0.05081 -4.142741,-0.0943 -6.215343,-0.178839 -30.735463,-1.112037 -61.4753184,-2.882931 -92.12146,-5.988659 -1.504277,-0.175079 -2.439531,-0.286049 -3.777682,-0.43863 -15.165942,0.378334 -30.411434,0.569325 -45.588165,-0.247496 z M -176.23066,-177.53538 c 0.11134,-1.056 0.16557,-2.11265 0.29897,-3.1684 -2.43674,-1.23569 -4.85402,-2.5099 -7.26481,-3.79744 z m -209.36415,-209.36414 c 4.26881,-0.30967 8.54337,-0.56401 12.81076,-0.88127 7.71328,-0.50082 15.39021,-1.35715 23.09974,-1.88991 6.18763,-0.37554 12.3763,-0.81415 18.50078,-1.71919 6.10097,-0.95712 12.08708,-2.43022 18.13276,-3.64616 7.69483,-1.71839 15.50109,-2.91984 23.3321,-3.9209 7.20663,-1.08482 14.48253,-1.5791 21.76768,-1.96607 6.1261,-0.28212 12.25985,-0.48682 18.40017,-0.40555 5.54667,0.12004 11.09284,0.23974 16.63743,0.53735 6.62209,0.14501 13.07993,1.66832 19.46944,3.39122 4.25568,1.10651 8.26047,2.91143 12.30056,4.62046 3.12104,-4.17426 8.43214,-6.87594 15.77448,-5.92526 0.68153,0.0882 1.36443,0.17758 2.0459,0.26581 5.02081,0.61974 10.04629,1.1613 15.0557,1.89879 4.52194,0.57225 9.04885,1.12352 13.58536,1.53146 3.80028,0.36407 7.60683,0.62498 11.41279,0.89873 3.71437,0.40977 7.43976,0.62806 11.16087,0.94987 4.72081,0.37158 9.38353,1.13517 14.03534,2.077 5.20652,1.04625 10.42288,2.02602 15.64645,2.97279 5.37404,0.87407 10.770911,1.5739 16.157236,2.35328 5.12121,-0.36605 10.236733,-0.80089 15.346089,-1.2973 7.47444,-0.79392 14.947017,-1.66187 22.384679,-2.71691 5.558547,-0.9183 11.090721,-1.97739 16.636263,-2.96394 5.389334,-0.9328 10.77128,-1.87965 16.201591,-2.58502 4.949223,-0.67435 9.9507509,-0.83411 14.94142895,-1.07946 5.97197545,-0.25134 11.97380405,-0.0467 17.95744405,0.12641 6.871998,0.0528 13.744876,0.15082 20.616968,0.23592 7.109441,0.17213 14.217298,0.5292 21.303763,1.25853 6.041429,0.59648 12.048695,1.52711 18.075264,2.26732 5.441049,0.73435 10.906132,1.22736 16.373216,1.64371 4.891152,0.36339 9.777028,0.80392 14.671988,1.09736 5.43043,0.29961 10.86446,0.36037 16.2959,0.59443 5.91277,0.31142 11.8267,0.56453 17.74197,0.75459 5.43768,0.17471 9.52427,2.15837 12.36277,5.02395 0.77798,-0.0386 1.54876,-0.15108 2.32819,-0.17542 4.47396,-0.24222 8.96181,-0.32432 13.35317,-1.24801 5.12149,-0.71111 10.24626,-1.41962 15.40344,-1.87609 4.4555,-0.43088 8.92888,-0.81747 13.42071,-0.73273 5.67692,-0.11322 11.36206,-0.0963 17.02371,-0.50426 4.24591,-0.22448 8.48121,-0.58819 12.68035,-1.21098 6.17667,-0.91611 11.11304,0.80147 14.64672,3.79686 6.06202,-1.05195 12.1196,-2.12524 18.19501,-3.10886 7.48198,-1.20177 14.97608,-2.32787 22.52256,-3.11415 6.91024,-0.74642 13.88504,-0.36546 20.82932,-0.035 4.81428,0.21594 9.61765,0.69468 14.42819,1.00373 4.86254,0.37967 9.71717,0.854 14.57365,1.32118 4.62197,0.17727 9.2239,0.74046 13.81888,1.30631 4.00278,0.41984 7.96955,1.14246 11.9424,1.79965 3.17931,0.48056 6.36974,0.85263 9.54693,1.35357 3.85248,0.8006 7.72932,1.40574 11.63321,1.78259 l 69.23277,-69.23278 -406.390284,-406.39028 -450.593206,450.59321 z" />
    </clipPath>
  </defs>
  <path
     id="rect10040"
     clip-path="url(#clipPath14734)"
     style="fill:url(#linearGradient12126);fill-opacity:1;fill-rule:nonzero;stroke-width:0.53103;stroke-dasharray:none"
     d="m -413.37906,-100.66818 255.12679,0.002 -255.12731,-255.1273 z m 314.4553,1.4e-4 197.667512,-10e-6 277.879848,-277.87984 -761.47716,-8.04995 z m -304.77075,-304.77075 798.76344,8.44557 3.12882,-3.12883 -801.39589,-8.4734 -1.82652,1.82651 z m 13.75975,-16.42004 801.3959,8.4734 5.71979,-5.7198 -801.39589,-8.4734 z m -23.44375,-37.29959 69.28874,-69.28874 -3.99007,-0.0422 -0.14174,-13.40512 17.3952,0.18393 17.86925,-17.86926 -96.08473,-1.01593 -0.14173,-13.40512 109.48984,1.15767 19.38862,-19.38861 -120.6433,-1.2756 -0.14174,-13.40512 134.04842,1.41734 20.14761,-20.14762 -149.80729,-1.58396 -0.14174,-13.40512 163.21242,1.7257 23.94398,-23.94398 -203.69267,-2.15371 z m 42.42693,18.31641 801.3959,8.4734 7.99816,-7.99816 -801.3959,-8.4734 z m 21.26154,-21.26155 796.86222,8.42547 -11.27138,-11.27138 -774.55531,-8.18961 z m 24.29891,-24.2989 747.74507,7.90613 -12.82322,-12.82322 -722.36696,-7.6378 z m 25.81827,-25.81827 695.55673,7.35433 -15.92411,-15.92411 -664.04173,-7.02111 z m 459.05918,411.55345 289.92155,9e-5 -9e-5,-289.92155 z m -572.86401,-577.74018 216.9543,2.29393 26.98134,-26.98135 -180.50551,-1.90854 -0.14037,-13.40648 193.91063,2.05028 28.49934,-28.49935 -283.34522,-2.99589 -0.14038,-13.40648 296.75034,3.13763 36.852437,-36.85243 -315.577657,-3.3367 -0.14174,-13.40512 328.982779,3.47843 78.454073,-78.45407 -56.071092,-56.07109 29.665144,-29.66515 56.071092,56.0711 13.689295,-13.6893 30.371667,30.37167 -13.689295,13.68929 80.058337,80.05834 295.15817,3.1208 -0.004,-282.56176 -862.78554,4e-4 z m 142.6591,137.33246 637.2315,6.73764 -18.25117,-18.25117 -601.11108,-6.35573 z m 31.13264,-31.13264 574.30084,6.07226 -19.803,-19.803 -535.10923,-5.65788 z m 32.65199,-32.652 508.29899,5.3744 -20.57822,-20.57822 -467.57315,-4.94379 z m 33.411,-33.41099 440.76292,4.66031 -24.45573,-24.45572 -392.36321,-4.14857 z m 37.20736,-37.20737 365.55298,3.86511 -27.55801,-27.55801 -311.01362,-3.28844 z m 40.246092,-40.24609 284.200638,3.00494 -29.10845,-29.10844 -226.592845,-2.39584 z m 41.764089,-41.76408 199.779849,2.11233 -37.64006,-37.64007 -125.287356,-1.3247 z m 50.1158141,-50.11582 98.4771169,1.04123 -49.759172,-49.75917 z m 453.5972049,296.83103 10e-4,-9.2843 -9.38469,-0.0992 z m -22.93038,-22.93038 22.93053,0.24245 -5.6e-4,-18.0582 -41.18114,-0.43542 z m -31.79802,-31.79802 54.72974,0.57867 0.001,-19.5936 -74.53388,-0.78807 z m -33.34986,-33.34986 88.07974,0.9313 -0.001,-20.36066 -108.65651,-1.14886 z m -34.12507,-34.12507 122.20511,1.29211 -2.3e-4,-64.8674 -187.76547,-1.9853 27.55801,27.55801 127.72665,1.35049 0.14174,13.40512 -114.32154,-1.20876 z m -79.10884,-79.10884 201.31408,2.12856 3.6e-4,-28.80067 -230.42288,-2.43633 z m -42.65669,-42.65669 243.97148,2.57958 7.8e-4,-37.24207 -281.61233,-2.97757 z"
     transform="matrix(-0.70040478,0.71537424,-0.70040478,-0.71537424,0.52916846,-2.3103131)" />
</svg>
