<?xml version="1.0" encoding="UTF-8" standalone="no"?>
<!-- Created with Inkscape (http://www.inkscape.org/) -->

<svg
   width="66.042007mm"
   height="74.080688mm"
   viewBox="0 0 66.042007 74.080688"
   version="1.1"
   id="svg5831"
   inkscape:export-filename="Trade.svg"
   inkscape:export-xdpi="96"
   inkscape:export-ydpi="96"
   xmlns:inkscape="http://www.inkscape.org/namespaces/inkscape"
   xmlns:sodipodi="http://sodipodi.sourceforge.net/DTD/sodipodi-0.dtd"
   xmlns="http://www.w3.org/2000/svg"
   xmlns:svg="http://www.w3.org/2000/svg">
  <sodipodi:namedview
     id="namedview5833"
     pagecolor="#505050"
     bordercolor="#eeeeee"
     borderopacity="1"
     inkscape:showpageshadow="0"
     inkscape:pageopacity="0"
     inkscape:pagecheckerboard="0"
     inkscape:deskcolor="#505050"
     inkscape:document-units="mm"
     showgrid="false" />
  <defs
     id="defs5828" />
  <g
     inkscape:label="Layer 1"
     inkscape:groupmode="layer"
     id="layer1"
     transform="translate(-56.753188,-17.604818)">
    <rect
       style="fill:#ffffff;stroke:#ffffff;stroke-width:0.101858"
       id="rect9385"
       width="65.855385"
       height="73.619247"
       x="56.877228"
       y="17.986076" />
    <g
       id="g1378"
       transform="matrix(0.26082636,0,0,0.26082636,53.020882,11.303528)">
      <path
         class="st0"
         d="m 198.99,64.6 c -12.72,-2.46 -25.31,-5.38 -37.98,-8.02 -6.35,-1.32 -9.21,-2.41 -12.24,4.79 -2.28,5.4 -6.98,8.93 -14.37,8.25 -4.52,-0.42 -6.1,1.66 -7.06,5.03 -5.74,20.21 -11.64,40.39 -17.47,60.58 -0.76,2.62 -1.35,4.35 -2.27,5.41 3.68,-0.12 7.36,-0.2 11.04,-0.23 1.58,-5.7 3.05,-11.15 4.62,-16.57 3.98,-13.78 8.04,-27.53 11.98,-41.32 0.75,-2.62 1.65,-4.39 5.4,-4.95 8.47,-1.25 13.56,-6.45 17.65,-12.81 12.37,2.64 24.59,5.25 37.05,7.9 0.08,8.12 2.49,15.13 10.33,20.13 0.8,0.51 0.68,2.58 0.37,3.82 -1.29,5.08 -2.81,10.12 -4.26,15.16 -0.79,2.75 -0.56,5.14 3.23,5.95 3.6,0.77 5.45,-0.8 6.27,-3.74 1.98,-7.05 4.39,-14.03 5.9,-21.15 0.39,-1.83 -1.28,-4.96 -3.14,-5.97 -6.91,-3.78 -9.91,-7.63 -8.59,-14.34 0.93,-4.85 -1.07,-6.88 -6.46,-7.92 z"
         id="path1354"
         style="fill:#e0a600" />
      <path
         class="st0"
         d="m 182.68,140.75 c -3.68,-17 -11.35,-23.99 -25.94,-23.97 -14.29,0.02 -22.45,7.42 -25.87,23.76 3.55,0.03 7.11,0.09 10.66,-0.04 -0.39,-0.68 -0.46,-1.61 -0.37,-2.73 0.59,-7.33 7.42,-12.67 16.14,-12.5 8.22,0.16 14.85,5.86 15.22,12.89 0.06,1.12 -0.13,1.93 -0.58,2.51 3.59,-0.03 7.17,-0.05 10.74,0.08 z"
         id="path1356"
         style="fill:#e0a600" />
      <path
         class="st0"
         d="m 44.16,99.6 c 0.14,0.64 0.2,1.21 0.17,1.74 0.08,0.09 0.13,0.21 0.13,0.35 -0.13,3.6 0.85,7.12 1.82,10.6 0.07,-0.05 0.13,-0.1 0.21,-0.16 1.95,9.29 3.78,18.01 5.83,27.82 2.48,1.31 5.68,1.69 8.49,1.87 3.72,0.23 7.46,0.05 11.18,-0.12 4.23,-0.19 8.48,-0.22 12.72,-0.31 -0.7,-1.22 -1.64,-2.4 -1.92,-3.68 C 79.34,121.62 75.97,105.52 72.73,89.4 72.5,88.27 73,86.38 73.94,85.85 c 7.94,-4.53 10.71,-11.3 11.58,-19.32 8.05,-1.22 15.58,-2.35 24.02,-3.63 -2.29,8.16 -4.37,15.72 -6.55,23.27 -4.99,17.24 -9.99,34.48 -15.14,51.68 -0.39,1.29 -1.72,2.38 -2.73,3.54 0.4,-0.01 0.8,-0.01 1.2,-0.02 3.53,-0.09 7.07,-0.22 10.6,-0.35 10.01,-34.59 20.02,-69.15 30.21,-104.35 37.17,7.9 73.81,15.68 111.4,23.67 -9.37,32.43 -18.65,64.57 -28.25,97.79 2.55,4.6 1.77,9.99 1.12,14.97 1.53,-0.01 3.04,-0.24 4.57,-0.38 5.33,-18.51 10.59,-36.79 15.85,-55.06 0.05,0 0.11,0 0.16,0 0.73,-2.2 1.69,-4.35 2.26,-6.59 0.68,-2.66 1.78,-5.29 1.82,-8.04 0,-0.19 0.09,-0.34 0.22,-0.44 3.81,-13.84 7.91,-27.61 11.91,-41.41 1.71,-5.91 1.06,-6.92 -5.64,-8.35 -23.37,-5 -46.73,-10.04 -70.15,-14.87 -3.95,-0.81 -5.84,-2.25 -6.39,-5.79 -1.01,-6.55 -2.04,-6.61 -9.84,-5.8 -9,0.93 -17.74,4.58 -27.11,2.23 -4.22,-1.06 -8.31,-2 -10.68,2.74 -0.37,0.74 -2.46,1 -3.81,1.21 -24.58,3.77 -49.17,7.52 -73.77,11.26 -6.87,1.04 -7.79,2.02 -6.59,7.84 3.28,15.99 6.57,31.98 9.95,47.95 z m 71.67,-58.84 c -1.21,4.39 -2.11,8.27 -3.48,12.03 -0.28,0.76 -2.25,1.31 -3.54,1.52 -9.2,1.51 -18.39,3.03 -27.64,4.28 -4.31,0.58 -6.11,2.37 -5.75,6.04 0.71,7.23 -2.08,12.51 -10.67,15.14 -4.47,1.37 -2.96,5.07 -2.43,7.86 2.18,11.34 4.64,22.63 6.97,33.95 1.34,6.49 2.63,12.98 3.94,19.45 -1,0.47 -1.15,0.6 -1.31,0.61 -9.51,0.53 -9.44,0.52 -11.11,-7.66 C 55.6,108.56 50.32,83.13 45.09,57.7 44.71,55.85 44.5,53.98 44.13,51.62 c 23.7,-3.59 47.14,-7.14 71.7,-10.86 z"
         id="path1358"
         style="fill:#e0a600" />
      <path
         class="st1"
         d="m 265,197.05 c 0.02,-4.62 -2.14,-6.66 -6.6,-6.54 -1.58,0.04 -3.17,0.01 -5.81,0.01 0,-2.93 0,-5.1 0,-7.27 -0.01,-17.33 0,-34.67 -0.04,-52 -0.02,-9.34 -2.21,-17.83 -8.73,-25.01 -0.23,-0.26 -0.42,-0.58 -0.6,-0.93 -0.35,1.48 -0.75,2.95 -1.09,4.43 -0.66,2.93 -1.71,5.74 -2.51,8.63 0.78,2.47 1.9,4.91 2.13,7.43 0.41,4.39 0.25,8.85 0.26,13.28 0.02,16.88 0.01,33.76 0.01,51.06 H 220.2 c 0.01,-0.04 0.02,-0.09 0.03,-0.13 -1.81,0.21 -3.62,0.53 -5.45,0.42 -0.39,-0.02 -0.85,-0.36 -0.8,-0.81 0.61,-5.62 1.54,-11.75 -0.2,-17.19 -0.04,0.15 -0.07,0.29 -0.11,0.43 -5.43,-13.42 -14.11,-21.43 -26.89,-23.61 -0.03,0 -0.06,0.01 -0.09,0.01 -5.66,-0.38 -11.34,-0.2 -17.01,-0.19 -0.27,0 -0.47,-0.11 -0.59,-0.27 -0.08,0 -0.14,0.01 -0.22,0 -4.38,-0.17 -8.77,-0.04 -13.16,-0.04 v 0.04 c -3.99,0 -7.99,-0.21 -11.96,0.06 -0.86,0.06 -1.55,0.01 -2.13,-0.13 -5.41,0.35 -10.84,0.16 -16.26,0.16 -0.35,0 -0.57,-0.19 -0.69,-0.44 h -7.34 c -0.13,0.15 -0.32,0.25 -0.57,0.25 -7.09,0.01 -14.16,0.33 -21.24,0.65 -11.28,0.51 -22.57,0.59 -33.85,1.15 -4.11,0.2 -8.26,0.32 -12.35,-0.23 -2.91,-0.39 -6.01,-1.17 -8.41,-2.95 -7.05,-3.35 -11.13,-7.88 -12.59,-14.58 -1.67,-7.63 0.15,-14.26 6.36,-20.28 -0.92,-3.9 -1.89,-7.84 -2.16,-11.84 -0.43,0.47 -0.97,0.93 -1.65,1.39 -8.47,5.75 -13.07,14.04 -13.58,24.35 -0.9,18.13 13.48,32.84 32.42,32.89 43.05,0.12 86.11,0.42 129.16,-0.15 18.38,-0.25 27.85,14.43 23.8,31.58 -6.19,0 -12.57,-0.26 -18.92,0.05 -16.08,0.79 -29.59,14.17 -30.72,30.14 -1.19,16.81 9.68,32.24 25.62,35.1 7.97,1.43 16.21,1.27 25.02,1.88 0,5.55 0.06,11.14 -0.01,16.72 -0.22,15.81 -8.57,24.14 -24.2,24.23 -18.02,0.11 -36.04,0.32 -54.06,0.32 -24.63,0 -49.25,-0.07 -73.88,-0.28 -11.53,-0.1 -19.04,-5.23 -22.39,-15.6 -1.2,-3.72 -1.35,-7.91 -1.36,-11.88 -0.11,-31.04 -0.06,-62.08 -0.06,-93.12 0,-3.64 -0.4,-7.31 -4.93,-7.57 -3.93,-0.23 -5.58,2.41 -5.57,6.26 0.09,33.66 -0.32,67.33 0.39,100.97 0.39,18.32 14.17,31.15 32.43,31.26 44.05,0.26 88.11,0.28 132.16,-0.04 12.35,-0.09 22.92,-5.23 28.07,-17.23 2.15,-5.02 4.81,-5.73 9.41,-5.72 15.29,0.06 26.37,-7.92 31.01,-21.92 0.73,-2.21 1.17,-4.52 1.81,-7.03 2.28,0 4.27,-0.01 6.26,0 4.23,0.03 6.2,-2.12 6.2,-6.33 0,-17.96 -0.02,-35.9 0.05,-53.84 z m -50.55,78.31 v -17.68 h 26.68 c -1.04,12.34 -10.75,18.99 -26.68,17.68 z m 40.22,-28.82 c -24.21,0 -47.39,0.43 -70.53,-0.18 -11.69,-0.31 -20.6,-10.67 -20.72,-21.87 -0.14,-12.5 8.45,-23.04 21.09,-23.45 22.17,-0.72 44.38,-0.29 66.57,-0.14 1.2,0.01 3.42,1.82 3.43,2.81 0.24,14.05 0.16,28.11 0.16,42.83 z"
         id="path1360"
         style="fill:#3c3c3c" />
      <path
         class="st2"
         d="m 44.09,148.19 c -8.68,-3.42 -13.58,-8.16 -15.26,-15.48 -1.89,-8.25 0.47,-15.33 8.31,-21.72 2.32,12.4 4.48,23.97 6.95,37.2 z"
         id="path1362"
         style="fill:#ffffff" />
      <path
         class="st1"
         d="m 191.9,205.22 c 10.47,0.07 19.18,8.46 19.14,18.46 -0.04,10.31 -9.02,18.99 -19.5,18.85 -10.41,-0.14 -19.27,-8.72 -19.19,-18.57 0.08,-10.46 8.8,-18.81 19.55,-18.74 z m 8.29,18.74 c 0.01,-4.38 -3.71,-8.09 -8.2,-8.2 -5.04,-0.12 -8.7,3.36 -8.65,8.22 0.05,4.54 3.58,7.89 8.35,7.91 4.55,0.02 8.49,-3.65 8.5,-7.93 z"
         id="path1364"
         style="fill:#3c3c3c" />
    </g>
  </g>
</svg>
