<?xml version="1.0" encoding="iso-8859-1"?>
<!-- Generator: Adobe Illustrator 26.4.1, SVG Export Plug-In . SVG Version: 6.00 Build 0)  -->
<svg version="1.1" id="Layer_1" xmlns="http://www.w3.org/2000/svg" xmlns:xlink="http://www.w3.org/1999/xlink" x="0px" y="0px"
	 viewBox="0 0 806.92 772.54" style="enable-background:new 0 0 806.92 772.54;" xml:space="preserve">
<style type="text/css">
	.st0{clip-path:url(#SVGID_00000013895309859282219610000006520405930911023760_);}
	.st1{fill:url(#SVGID_00000069381287697538493850000017558654430155801762_);}
	.st2{fill:url(#SVGID_00000111913183878803981910000014438265870465269164_);}
	.st3{fill:url(#SVGID_00000095322678798613950130000017192923418412106664_);}
	.st4{fill:url(#SVGID_00000006708561021897235550000008655472651222951814_);}
	.st5{fill:url(#SVGID_00000152977790448196750700000009291031051912618656_);}
	.st6{fill:url(#SVGID_00000096020648209473986120000008849479784733201807_);}
	.st7{fill:url(#SVGID_00000047051778944246915990000008283862361524153245_);}
	.st8{fill:url(#SVGID_00000147922605422563171810000013971753142660182965_);}
	.st9{fill:url(#SVGID_00000150822137564539495050000004429803635182001576_);}
	.st10{fill:url(#SVGID_00000004525594856170232090000000739724092159067817_);}
	.st11{fill:url(#SVGID_00000152258493140948909030000002181552470413134502_);}
	.st12{fill:url(#SVGID_00000129900866249242172600000014844767316437107091_);}
	.st13{fill:url(#SVGID_00000031915853001969855380000004534754861850387603_);}
	.st14{fill:url(#SVGID_00000121250048072166584760000012970645766457480576_);}
	.st15{fill:url(#SVGID_00000170270583084139972570000013663569121435586743_);}
	.st16{fill:url(#SVGID_00000118365674207281670940000012240668228412703879_);}
	.st17{fill:url(#SVGID_00000180331107599738098670000007118661039427076761_);}
	.st18{fill:url(#SVGID_00000109014098495424427870000002595578749289597630_);}
	.st19{fill:url(#SVGID_00000095339665180464874600000007674697326801491385_);}
	.st20{fill:url(#SVGID_00000094583170234223953900000008984854068589741979_);}
	.st21{fill:url(#SVGID_00000052080785196183112920000011800461925873022848_);}
</style>
<g id="New_Symbol">
</g>
<g>
	<defs>
		<rect id="SVGID_1_" width="806.92" height="772.54"/>
	</defs>
	<clipPath id="SVGID_00000113338337539087606820000012857384696008582543_">
		<use xlink:href="#SVGID_1_"  style="overflow:visible;"/>
	</clipPath>
	<g style="clip-path:url(#SVGID_00000113338337539087606820000012857384696008582543_);">
		<g>
			<g>
				
					<radialGradient id="SVGID_00000068642176436519719090000016648302487895394749_" cx="958.5229" cy="775.9653" r="2.7208" gradientUnits="userSpaceOnUse">
					<stop  offset="0" style="stop-color:#EEC660"/>
					<stop  offset="0.1769" style="stop-color:#E9C25D"/>
					<stop  offset="0.3781" style="stop-color:#DCB554"/>
					<stop  offset="0.5905" style="stop-color:#C5A046"/>
					<stop  offset="0.7151" style="stop-color:#B4903B"/>
					<stop  offset="1" style="stop-color:#947121"/>
				</radialGradient>
				<polygon style="fill:url(#SVGID_00000068642176436519719090000016648302487895394749_);" points="958.88,778.69 955.8,775.61 
					958.17,773.24 961.24,776.32 				"/>
			</g>
			
				<radialGradient id="SVGID_00000173846381160395819960000008408415514479304856_" cx="939.9967" cy="757.4987" r="21.748" gradientUnits="userSpaceOnUse">
				<stop  offset="0" style="stop-color:#EEC660"/>
				<stop  offset="0.1769" style="stop-color:#E9C25D"/>
				<stop  offset="0.3781" style="stop-color:#DCB554"/>
				<stop  offset="0.5905" style="stop-color:#C5A046"/>
				<stop  offset="0.7151" style="stop-color:#B4903B"/>
				<stop  offset="1" style="stop-color:#947121"/>
			</radialGradient>
			<path style="fill:url(#SVGID_00000173846381160395819960000008408415514479304856_);" d="M918.25,775.05c0,0,0.65-0.58,1.74-1.65
				c0.55-0.53,1.21-1.17,1.94-1.95c0.75-0.75,1.53-1.66,2.49-2.54c0.93-0.91,1.99-1.85,3-2.96c1.03-1.09,2.12-2.22,3.32-3.33
				c2.37-2.24,4.78-4.75,7.26-7.2c1.23-1.23,2.47-2.45,3.63-3.7c1.17-1.25,2.4-2.4,3.58-3.53c1.17-1.14,2.23-2.31,3.28-3.37
				c1.08-1.04,2.09-2.02,3.04-2.92c1.86-1.83,3.36-3.4,4.41-4.51c1.03-1.12,1.74-1.64,1.74-1.64l4.08,4.08c0,0-0.52,0.71-1.64,1.74
				c-1.1,1.05-2.68,2.55-4.51,4.41c-0.91,0.94-1.89,1.96-2.92,3.03c-1.06,1.05-2.24,2.1-3.37,3.28c-1.13,1.18-2.28,2.41-3.53,3.58
				c-1.25,1.17-2.47,2.4-3.7,3.64c-2.45,2.47-4.95,4.89-7.19,7.26c-1.11,1.19-2.25,2.29-3.34,3.31c-1.1,1.01-2.04,2.07-2.95,3
				c-0.88,0.96-1.79,1.74-2.54,2.49c-0.77,0.72-1.42,1.39-1.95,1.94c-1.07,1.08-1.65,1.73-1.65,1.73L918.25,775.05z"/>
			
				<radialGradient id="SVGID_00000149362871490645433300000000610942411810694832_" cx="921.5167" cy="738.9884" r="40.7606" gradientUnits="userSpaceOnUse">
				<stop  offset="0" style="stop-color:#EEC660"/>
				<stop  offset="0.1769" style="stop-color:#E9C25D"/>
				<stop  offset="0.3781" style="stop-color:#DCB554"/>
				<stop  offset="0.5905" style="stop-color:#C5A046"/>
				<stop  offset="0.7151" style="stop-color:#B4903B"/>
				<stop  offset="1" style="stop-color:#947121"/>
			</radialGradient>
			<path style="fill:url(#SVGID_00000149362871490645433300000000610942411810694832_);" d="M880.76,774.55c0,0,1.22-1.17,3.31-3.25
				c1.03-1.06,2.28-2.35,3.76-3.77c1.49-1.41,3.06-3.13,4.88-4.89c1.81-1.77,3.76-3.7,5.78-5.77c2.01-2.1,4.26-4.16,6.44-6.46
				c1.12-1.11,2.27-2.24,3.43-3.38c1.15-1.16,2.27-2.36,3.47-3.51c2.39-2.31,4.75-4.72,7.11-7.13c2.39-2.38,4.78-4.76,7.14-7.11
				c2.38-2.32,4.67-4.65,6.88-6.91c2.29-2.18,4.39-4.41,6.46-6.44c2.1-2,3.95-4.02,5.77-5.79c7.17-7.14,11.96-11.9,11.96-11.9
				l5.14,5.14c0,0-4.76,4.78-11.9,11.96c-1.77,1.81-3.79,3.67-5.79,5.77c-2.03,2.07-4.26,4.17-6.44,6.46
				c-2.26,2.22-4.6,4.5-6.91,6.88c-2.34,2.35-4.72,4.75-7.11,7.13c-2.42,2.36-4.82,4.73-7.13,7.11c-1.15,1.2-2.35,2.33-3.51,3.47
				c-1.14,1.16-2.27,2.3-3.39,3.43c-2.29,2.18-4.36,4.43-6.46,6.44c-2.07,2.02-4.01,3.97-5.77,5.79c-1.76,1.82-3.48,3.38-4.89,4.87
				c-1.43,1.48-2.72,2.73-3.77,3.76c-2.09,2.08-3.26,3.3-3.26,3.3L880.76,774.55z"/>
			
				<radialGradient id="SVGID_00000047740476328858146460000006763763377552980356_" cx="903.0075" cy="720.5085" r="59.7717" gradientUnits="userSpaceOnUse">
				<stop  offset="0" style="stop-color:#EEC660"/>
				<stop  offset="0.1769" style="stop-color:#E9C25D"/>
				<stop  offset="0.3781" style="stop-color:#DCB554"/>
				<stop  offset="0.5905" style="stop-color:#C5A046"/>
				<stop  offset="0.7151" style="stop-color:#B4903B"/>
				<stop  offset="1" style="stop-color:#947121"/>
			</radialGradient>
			<path style="fill:url(#SVGID_00000047740476328858146460000006763763377552980356_);" d="M843.23,774.02c0,0,0.48-0.41,1.31-1.23
				c0.86-0.81,2.07-2.03,3.57-3.63c1.53-1.57,3.52-3.34,5.59-5.59c2.16-2.16,4.7-4.48,7.27-7.24c1.28-1.38,2.71-2.71,4.17-4.11
				c1.41-1.45,2.83-3,4.41-4.45c1.59-1.45,3.03-3.14,4.65-4.72c1.58-1.62,3.28-3.19,4.95-4.84c0.81-0.85,1.63-1.7,2.46-2.56
				c0.86-0.82,1.73-1.66,2.6-2.49c1.69-1.73,3.36-3.51,5.13-5.23c1.77-1.72,3.59-3.41,5.28-5.25c1.74-1.79,3.62-3.44,5.31-5.3
				c3.62-3.46,7-7.16,10.59-10.55c1.83-1.66,3.38-3.57,5.17-5.19c1.79-1.63,3.36-3.43,5.03-5.08c1.64-1.68,3.33-3.25,4.95-4.84
				c1.55-1.65,3.09-3.23,4.67-4.69c1.56-1.48,2.91-3.1,4.41-4.46c1.48-1.39,2.86-2.77,4.19-4.11c1.32-1.34,2.51-2.69,3.77-3.85
				c1.25-1.17,2.41-2.31,3.45-3.43c2.09-2.23,4.13-3.95,5.59-5.59c1.49-1.6,2.75-2.78,3.57-3.63c0.83-0.82,1.33-1.21,1.33-1.21
				l6.15,6.15c0,0-0.39,0.5-1.21,1.33c-0.84,0.82-2.02,2.07-3.63,3.57c-1.64,1.46-3.36,3.5-5.59,5.59c-1.12,1.04-2.26,2.2-3.43,3.45
				c-1.16,1.26-2.52,2.45-3.85,3.77c-1.33,1.32-2.72,2.71-4.1,4.18c-1.37,1.5-2.98,2.85-4.46,4.41c-1.46,1.58-3.05,3.13-4.69,4.67
				c-1.58,1.61-3.15,3.31-4.83,4.95c-1.66,1.67-3.45,3.24-5.08,5.03c-1.62,1.79-3.53,3.34-5.19,5.17
				c-3.39,3.58-7.09,6.96-10.55,10.59c-1.85,1.69-3.51,3.57-5.3,5.31c-1.84,1.69-3.53,3.51-5.25,5.28
				c-1.72,1.77-3.51,3.44-5.24,5.13c-0.84,0.87-1.67,1.74-2.49,2.6c-0.86,0.82-1.72,1.65-2.56,2.46c-1.65,1.67-3.22,3.37-4.84,4.95
				c-1.58,1.62-3.27,3.05-4.72,4.65c-1.46,1.59-3,3-4.46,4.41c-1.4,1.46-2.74,2.89-4.11,4.17c-2.75,2.57-5.07,5.11-7.23,7.27
				c-2.25,2.07-4.02,4.06-5.59,5.59c-1.6,1.5-2.82,2.72-3.62,3.57c-0.83,0.84-1.24,1.31-1.24,1.31L843.23,774.02z"/>
			
				<radialGradient id="SVGID_00000029026354968511562260000014900706352917634212_" cx="884.5409" cy="701.9832" r="78.7994" gradientUnits="userSpaceOnUse">
				<stop  offset="0" style="stop-color:#EEC660"/>
				<stop  offset="0.1769" style="stop-color:#E9C25D"/>
				<stop  offset="0.3781" style="stop-color:#DCB554"/>
				<stop  offset="0.5905" style="stop-color:#C5A046"/>
				<stop  offset="0.7151" style="stop-color:#B4903B"/>
				<stop  offset="1" style="stop-color:#947121"/>
			</radialGradient>
			<path style="fill:url(#SVGID_00000029026354968511562260000014900706352917634212_);" d="M805.74,773.51c0,0,0.59-0.58,1.71-1.67
				c1.14-1.06,2.68-2.75,4.76-4.78c2.11-2.01,4.51-4.59,7.41-7.42c1.45-1.41,2.99-2.92,4.57-4.56c1.58-1.63,3.34-3.25,5.06-5.05
				c14.1-14.09,32.89-32.88,51.68-51.67c18.79-18.8,37.58-37.59,51.67-51.68c7.04-7.05,12.91-12.93,17.02-17.04
				c2.07-2.04,3.69-3.65,4.8-4.75c1.08-1.12,1.66-1.71,1.66-1.71l7.27,7.27c0,0-0.59,0.58-1.71,1.67c-1.1,1.1-2.7,2.73-4.75,4.79
				c-4.11,4.11-9.99,9.98-17.04,17.02c-14.1,14.09-32.89,32.88-51.69,51.67c-18.79,18.79-37.58,37.58-51.67,51.68
				c-1.8,1.72-3.42,3.48-5.05,5.06c-1.63,1.58-3.15,3.11-4.55,4.56c-2.83,2.89-5.42,5.3-7.42,7.41c-2.03,2.08-3.71,3.63-4.78,4.76
				c-1.09,1.11-1.67,1.71-1.67,1.71L805.74,773.51z"/>
			
				<radialGradient id="SVGID_00000124841468833904017470000006245936678066481841_" cx="866.0315" cy="683.5032" r="97.8125" gradientUnits="userSpaceOnUse">
				<stop  offset="0" style="stop-color:#EEC660"/>
				<stop  offset="0.1769" style="stop-color:#E9C25D"/>
				<stop  offset="0.3781" style="stop-color:#DCB554"/>
				<stop  offset="0.5905" style="stop-color:#C5A046"/>
				<stop  offset="0.7151" style="stop-color:#B4903B"/>
				<stop  offset="1" style="stop-color:#947121"/>
			</radialGradient>
			<path style="fill:url(#SVGID_00000124841468833904017470000006245936678066481841_);" d="M768.22,772.98c0,0,0.75-0.72,2.15-2.05
				c1.37-1.38,3.38-3.4,5.93-5.97c5.12-5.12,12.44-12.44,21.22-21.22c17.56-17.56,40.98-40.97,64.4-64.38
				c46.83-46.84,93.65-93.67,93.65-93.67l8.27,8.28c0,0-46.83,46.83-93.67,93.65c-23.41,23.42-46.83,46.83-64.39,64.39
				c-8.78,8.78-16.1,16.1-21.22,21.22c-2.57,2.55-4.59,4.56-5.97,5.93c-1.34,1.4-2.05,2.15-2.05,2.15L768.22,772.98z"/>
			
				<radialGradient id="SVGID_00000079447977524945293650000003588113296637090201_" cx="847.5516" cy="664.993" r="116.7957" gradientUnits="userSpaceOnUse">
				<stop  offset="0" style="stop-color:#EEC660"/>
				<stop  offset="0.1769" style="stop-color:#E9C25D"/>
				<stop  offset="0.3781" style="stop-color:#DCB554"/>
				<stop  offset="0.5905" style="stop-color:#C5A046"/>
				<stop  offset="0.7151" style="stop-color:#B4903B"/>
				<stop  offset="1" style="stop-color:#947121"/>
			</radialGradient>
			<path style="fill:url(#SVGID_00000079447977524945293650000003588113296637090201_);" d="M730.76,772.51c0,0,0.89-0.87,2.55-2.49
				c1.63-1.66,4.01-4.09,7.09-7.14c6.14-6.13,14.91-14.88,25.43-25.39c21.02-21.04,49.05-49.08,77.09-77.13
				c56.08-56.08,112.15-112.16,112.15-112.16l9.28,9.28c0,0-56.08,56.08-112.16,112.15c-28.05,28.03-56.09,56.06-77.13,77.08
				c-10.5,10.53-19.26,19.3-25.39,25.44c-3.06,3.08-5.49,5.46-7.15,7.09c-1.63,1.66-2.49,2.55-2.49,2.55L730.76,772.51z"/>
			
				<radialGradient id="SVGID_00000004507297379030814140000003802814603859536519_" cx="829.0566" cy="646.4979" r="135.7913" gradientUnits="userSpaceOnUse">
				<stop  offset="0" style="stop-color:#EEC660"/>
				<stop  offset="0.1769" style="stop-color:#E9C25D"/>
				<stop  offset="0.3781" style="stop-color:#DCB554"/>
				<stop  offset="0.5905" style="stop-color:#C5A046"/>
				<stop  offset="0.7151" style="stop-color:#B4903B"/>
				<stop  offset="1" style="stop-color:#947121"/>
			</radialGradient>
			<polygon style="fill:url(#SVGID_00000004507297379030814140000003802814603859536519_);" points="693.26,772.01 954.56,510.71 
				964.85,520.99 703.55,782.29 			"/>
			
				<radialGradient id="SVGID_00000103985246963803237500000000320414914547740590_" cx="810.5464" cy="628.0179" r="154.7442" gradientUnits="userSpaceOnUse">
				<stop  offset="0" style="stop-color:#EEC660"/>
				<stop  offset="0.1769" style="stop-color:#E9C25D"/>
				<stop  offset="0.3781" style="stop-color:#DCB554"/>
				<stop  offset="0.5905" style="stop-color:#C5A046"/>
				<stop  offset="0.7151" style="stop-color:#B4903B"/>
				<stop  offset="1" style="stop-color:#947121"/>
			</radialGradient>
			<path style="fill:url(#SVGID_00000103985246963803237500000000320414914547740590_);" d="M655.8,771.53c0,0,1.17-1.15,3.38-3.32
				c2.18-2.19,5.39-5.39,9.47-9.47c8.15-8.16,19.81-19.81,33.79-33.79c27.96-27.96,65.25-65.25,102.54-102.54
				c74.57-74.57,149.15-149.15,149.15-149.15l11.17,11.17c0,0-74.57,74.57-149.15,149.15c-37.29,37.29-74.57,74.57-102.54,102.54
				c-13.98,13.98-25.63,25.63-33.79,33.79c-4.08,4.08-7.28,7.28-9.47,9.47c-2.16,2.21-3.32,3.38-3.32,3.38L655.8,771.53z"/>
			
				<radialGradient id="SVGID_00000007424359171367796980000008934486030361844371_" cx="792.0815" cy="609.4926" r="173.6546" gradientUnits="userSpaceOnUse">
				<stop  offset="0" style="stop-color:#EEC660"/>
				<stop  offset="0.1769" style="stop-color:#E9C25D"/>
				<stop  offset="0.3781" style="stop-color:#DCB554"/>
				<stop  offset="0.5905" style="stop-color:#C5A046"/>
				<stop  offset="0.7151" style="stop-color:#B4903B"/>
				<stop  offset="1" style="stop-color:#947121"/>
			</radialGradient>
			<path style="fill:url(#SVGID_00000007424359171367796980000008934486030361844371_);" d="M618.43,771.15c0,0,1.3-1.32,3.74-3.79
				c2.46-2.46,6.06-6.06,10.64-10.64c9.17-9.17,22.26-22.27,37.98-37.98c31.43-31.43,73.34-73.34,115.25-115.25
				c41.91-41.91,83.82-83.82,115.25-115.25c15.72-15.72,28.81-28.81,37.98-37.98c4.58-4.58,8.19-8.19,10.64-10.64
				c1.24-1.21,2.19-2.15,2.83-2.77c0.63-0.64,0.93-0.99,0.93-0.99l12.06,12.06c0,0-0.35,0.31-0.99,0.93
				c-0.63,0.64-1.56,1.59-2.77,2.83c-2.46,2.46-6.06,6.06-10.64,10.64c-9.17,9.17-22.26,22.27-37.98,37.98
				c-31.43,31.43-73.34,73.34-115.25,115.25c-41.91,41.91-83.82,83.82-115.25,115.25c-15.72,15.72-28.81,28.81-37.98,37.98
				c-4.58,4.58-8.19,8.19-10.64,10.64c-2.47,2.43-3.8,3.74-3.8,3.74L618.43,771.15z"/>
			
				<radialGradient id="SVGID_00000182505563645602204920000014515440379663362726_" cx="773.5856" cy="590.9976" r="191.6166" gradientUnits="userSpaceOnUse">
				<stop  offset="0" style="stop-color:#EEC660"/>
				<stop  offset="0.1769" style="stop-color:#E9C25D"/>
				<stop  offset="0.3781" style="stop-color:#DCB554"/>
				<stop  offset="0.5905" style="stop-color:#C5A046"/>
				<stop  offset="0.7151" style="stop-color:#B4903B"/>
				<stop  offset="1" style="stop-color:#947121"/>
			</radialGradient>
			<path style="fill:url(#SVGID_00000182505563645602204920000014515440379663362726_);" d="M581.97,771.68c0,0,1.44-1.46,4.15-4.21
				c2.73-2.72,6.72-6.72,11.81-11.81c10.18-10.17,24.74-24.71,42.2-42.15c34.89-34.91,81.42-81.45,127.94-127.99
				c93.07-93.07,186.14-186.14,186.14-186.14l10.99,10.99c0,0-93.07,93.07-186.14,186.14c-46.54,46.53-93.08,93.05-127.99,127.95
				c-17.44,17.46-31.97,32.01-42.15,42.19c-5.09,5.09-9.09,9.09-11.81,11.81c-2.75,2.71-4.21,4.15-4.21,4.15L581.97,771.68z"/>
			
				<radialGradient id="SVGID_00000052790112337087985030000015869802570174265023_" cx="755.0905" cy="572.5043" r="209.58" gradientUnits="userSpaceOnUse">
				<stop  offset="0" style="stop-color:#EEC660"/>
				<stop  offset="0.1769" style="stop-color:#E9C25D"/>
				<stop  offset="0.3781" style="stop-color:#DCB554"/>
				<stop  offset="0.5905" style="stop-color:#C5A046"/>
				<stop  offset="0.7151" style="stop-color:#B4903B"/>
				<stop  offset="1" style="stop-color:#947121"/>
			</radialGradient>
			<path style="fill:url(#SVGID_00000052790112337087985030000015869802570174265023_);" d="M545.51,772.22c0,0,1.59-1.61,4.57-4.63
				c1.51-1.49,3.36-3.33,5.54-5.5c2.17-2.18,4.66-4.68,7.45-7.49c11.2-11.19,27.19-27.17,46.38-46.34
				c38.36-38.37,89.52-89.53,140.67-140.7c51.15-51.16,102.31-102.32,140.67-140.7c19.18-19.18,35.17-35.17,46.36-46.36
				c5.64-5.55,9.96-10.02,12.99-12.99c1.51-1.49,2.67-2.63,3.45-3.39c0.77-0.78,1.15-1.2,1.15-1.2l9.93,9.93c0,0-0.43,0.37-1.2,1.15
				c-0.77,0.78-1.91,1.94-3.39,3.45c-2.97,3.02-7.44,7.35-12.99,12.99c-11.19,11.19-27.18,27.18-46.36,46.36
				c-38.37,38.36-89.53,89.52-140.7,140.67c-51.16,51.15-102.32,102.31-140.69,140.67c-19.18,19.19-35.15,35.19-46.34,46.38
				c-2.81,2.79-5.31,5.28-7.49,7.45c-2.16,2.18-4.01,4.04-5.5,5.54c-3.02,2.98-4.63,4.57-4.63,4.57L545.51,772.22z"/>
			
				<radialGradient id="SVGID_00000119077638402505388010000000066461073169707164_" cx="736.5954" cy="554.0074" r="227.5434" gradientUnits="userSpaceOnUse">
				<stop  offset="0" style="stop-color:#EEC660"/>
				<stop  offset="0.1769" style="stop-color:#E9C25D"/>
				<stop  offset="0.3781" style="stop-color:#DCB554"/>
				<stop  offset="0.5905" style="stop-color:#C5A046"/>
				<stop  offset="0.7151" style="stop-color:#B4903B"/>
				<stop  offset="1" style="stop-color:#947121"/>
			</radialGradient>
			<path style="fill:url(#SVGID_00000119077638402505388010000000066461073169707164_);" d="M509.05,772.74c0,0,0.43-0.44,1.27-1.29
				c0.83-0.86,2.08-2.11,3.74-3.72c3.26-3.27,8.05-8.08,14.14-14.19c12.21-12.2,29.64-29.63,50.57-50.54
				c41.84-41.83,97.62-97.62,153.4-153.39c55.78-55.78,111.56-111.56,153.4-153.4c20.92-20.91,38.36-38.34,50.56-50.54
				c12.18-12.22,19.15-19.2,19.15-19.2l8.86,8.86c0,0-6.98,6.97-19.2,19.15c-12.2,12.2-29.63,29.64-50.54,50.56
				c-41.84,41.83-97.62,97.62-153.4,153.4C685.21,614.22,629.43,670,587.6,711.84c-20.91,20.92-38.34,38.36-50.54,50.57
				c-6.11,6.09-10.92,10.88-14.19,14.14c-1.61,1.66-2.86,2.91-3.72,3.74c-0.85,0.84-1.29,1.27-1.29,1.27L509.05,772.74z"/>
			
				<radialGradient id="SVGID_00000013883212933630123330000003787025046648827317_" cx="718.1003" cy="535.5123" r="245.5077" gradientUnits="userSpaceOnUse">
				<stop  offset="0" style="stop-color:#EEC660"/>
				<stop  offset="0.1769" style="stop-color:#E9C25D"/>
				<stop  offset="0.3781" style="stop-color:#DCB554"/>
				<stop  offset="0.5905" style="stop-color:#C5A046"/>
				<stop  offset="0.7151" style="stop-color:#B4903B"/>
				<stop  offset="1" style="stop-color:#947121"/>
			</radialGradient>
			<path style="fill:url(#SVGID_00000013883212933630123330000003787025046648827317_);" d="M472.59,773.28c0,0,0.47-0.48,1.37-1.4
				c0.89-0.93,2.26-2.28,4.05-4.03c1.73-1.81,3.95-3.96,6.51-6.53c2.51-2.63,5.54-5.49,8.81-8.82
				c13.21-13.21,32.09-32.09,54.75-54.74c45.3-45.31,105.7-105.72,166.11-166.12c60.41-60.4,120.82-120.8,166.13-166.1
				c22.64-22.66,41.52-41.54,54.72-54.76c3.27-3.33,6.31-6.2,8.81-8.82c2.62-2.51,4.74-4.75,6.52-6.52
				c1.78-1.76,3.14-3.11,4.07-4.02c0.92-0.9,1.36-1.41,1.36-1.41l7.8,7.8c0,0-0.51,0.44-1.41,1.36c-0.91,0.92-2.26,2.29-4.01,4.07
				c-1.77,1.77-4.01,3.9-6.52,6.52c-2.63,2.5-5.49,5.54-8.83,8.81c-13.22,13.21-32.1,32.08-54.76,54.73
				c-45.3,45.31-105.7,105.72-166.1,166.13c-60.41,60.4-120.82,120.8-166.12,166.11c-22.65,22.65-41.53,41.53-54.74,54.75
				c-3.33,3.27-6.2,6.3-8.83,8.81c-2.57,2.57-4.72,4.78-6.53,6.51c-1.75,1.79-3.09,3.16-4.03,4.05c-0.93,0.9-1.4,1.37-1.4,1.37
				L472.59,773.28z"/>
			
				<radialGradient id="SVGID_00000170272245263300948630000010006996187580519598_" cx="699.59" cy="517.0323" r="263.455" gradientUnits="userSpaceOnUse">
				<stop  offset="0" style="stop-color:#EEC660"/>
				<stop  offset="0.1769" style="stop-color:#E9C25D"/>
				<stop  offset="0.3781" style="stop-color:#DCB554"/>
				<stop  offset="0.5905" style="stop-color:#C5A046"/>
				<stop  offset="0.7151" style="stop-color:#B4903B"/>
				<stop  offset="1" style="stop-color:#947121"/>
			</radialGradient>
			<path style="fill:url(#SVGID_00000170272245263300948630000010006996187580519598_);" d="M436.13,773.81c0,0,1.98-2.08,5.84-5.85
				c3.81-3.81,9.39-9.41,16.49-16.53c14.23-14.22,34.55-34.54,58.94-58.93c48.77-48.77,113.8-113.8,178.82-178.84
				c65.03-65.03,130.06-130.06,178.83-178.83c24.39-24.39,44.71-44.71,58.93-58.93c7.12-7.11,12.71-12.69,16.53-16.5
				c3.78-3.84,5.85-5.84,5.85-5.84l6.68,6.68c0,0-1.99,2.07-5.84,5.85c-3.81,3.81-9.39,9.4-16.5,16.53
				c-14.22,14.22-34.55,34.55-58.93,58.93c-48.77,48.77-113.8,113.8-178.83,178.84c-65.03,65.03-130.06,130.05-178.84,178.82
				c-24.39,24.39-44.71,44.71-58.93,58.93c-7.12,7.11-12.72,12.68-16.53,16.49c-3.76,3.86-5.85,5.84-5.85,5.84L436.13,773.81z"/>
			
				<radialGradient id="SVGID_00000118383437249221433340000014394544107978933123_" cx="681.1092" cy="498.5221" r="281.4047" gradientUnits="userSpaceOnUse">
				<stop  offset="0" style="stop-color:#EEC660"/>
				<stop  offset="0.1769" style="stop-color:#E9C25D"/>
				<stop  offset="0.3781" style="stop-color:#DCB554"/>
				<stop  offset="0.5905" style="stop-color:#C5A046"/>
				<stop  offset="0.7151" style="stop-color:#B4903B"/>
				<stop  offset="1" style="stop-color:#947121"/>
			</radialGradient>
			<path style="fill:url(#SVGID_00000118383437249221433340000014394544107978933123_);" d="M399.7,774.37c0,0,2.09-2.26,6.22-6.3
				c4.08-4.08,10.07-10.07,17.69-17.69c15.23-15.24,37-37.01,63.11-63.14c52.24-52.24,121.9-121.89,191.55-191.54
				C817.58,356.42,956.9,217.12,956.9,217.12l5.61,5.62c0,0-139.3,139.31-278.59,278.63c-69.65,69.65-139.3,139.31-191.54,191.55
				c-26.13,26.11-47.9,47.88-63.14,63.11c-7.62,7.62-13.61,13.6-17.69,17.68c-4.04,4.13-6.3,6.22-6.3,6.22L399.7,774.37z"/>
			
				<radialGradient id="SVGID_00000037655880248544924610000006826661289916868772_" cx="662.4126" cy="480.2295" r="299.1945" gradientUnits="userSpaceOnUse">
				<stop  offset="0" style="stop-color:#EEC660"/>
				<stop  offset="0.1769" style="stop-color:#E9C25D"/>
				<stop  offset="0.3781" style="stop-color:#DCB554"/>
				<stop  offset="0.5905" style="stop-color:#C5A046"/>
				<stop  offset="0.7151" style="stop-color:#B4903B"/>
				<stop  offset="1" style="stop-color:#947121"/>
			</radialGradient>
			<path style="fill:url(#SVGID_00000037655880248544924610000006826661289916868772_);" d="M363.22,774.87c0,0,2.27-2.37,6.67-6.67
				c4.35-4.35,10.73-10.73,18.85-18.85c16.24-16.24,39.43-39.43,67.27-67.27c55.67-55.67,129.9-129.9,204.13-204.13
				c74.23-74.23,148.46-148.46,204.13-204.14c27.84-27.83,51.04-51.03,67.28-67.26c8.12-8.12,14.5-14.5,18.85-18.85
				c2.16-2.19,3.82-3.86,4.94-4.99c1.14-1.11,1.73-1.68,1.73-1.68l4.55,4.55c0,0-0.57,0.59-1.68,1.73c-1.13,1.12-2.8,2.78-4.99,4.94
				c-4.35,4.35-10.73,10.73-18.85,18.85c-16.24,16.24-39.43,39.44-67.27,67.27c-55.67,55.67-129.9,129.9-204.14,204.13
				c-74.23,74.23-148.46,148.46-204.13,204.13c-27.84,27.84-51.03,51.03-67.27,67.27c-8.12,8.12-14.5,14.5-18.85,18.85
				c-4.3,4.4-6.67,6.67-6.67,6.67L363.22,774.87z"/>
			
				<radialGradient id="SVGID_00000177481885716454767920000004815614069207854748_" cx="625.4366" cy="480.2144" r="298.6491" gradientUnits="userSpaceOnUse">
				<stop  offset="0" style="stop-color:#EEC660"/>
				<stop  offset="0.1769" style="stop-color:#E9C25D"/>
				<stop  offset="0.3781" style="stop-color:#DCB554"/>
				<stop  offset="0.5905" style="stop-color:#C5A046"/>
				<stop  offset="0.7151" style="stop-color:#B4903B"/>
				<stop  offset="1" style="stop-color:#947121"/>
			</radialGradient>
			<path style="fill:url(#SVGID_00000177481885716454767920000004815614069207854748_);" d="M326.79,775.44c0,0,0.53-0.63,1.64-1.77
				c1.05-1.2,2.84-2.74,5-4.93c4.35-4.35,10.73-10.73,18.85-18.85c8.12-8.12,17.98-17.98,29.29-29.29c2.83-2.83,5.74-5.74,8.75-8.75
				c1.52-1.49,3.01-3.04,4.52-4.62c1.54-1.56,3.19-3.03,4.75-4.65c3.17-3.17,6.44-6.41,9.7-9.8c3.43-3.22,6.77-6.71,10.27-10.16
				c55.67-55.67,129.9-129.9,204.13-204.13c74.23-74.23,148.45-148.47,204.12-204.14c27.84-27.83,51.04-51.03,67.28-67.26
				c2.03-2.03,3.95-3.95,5.76-5.76c1.84-1.77,3.4-3.61,5.04-5.12c3.24-3.07,5.86-5.82,8.05-7.97c2.2-2.15,3.77-3.91,4.91-5.02
				c1.14-1.11,1.76-1.65,1.76-1.65l3.49,3.49c0,0-0.54,0.62-1.65,1.76c-1.11,1.14-2.87,2.71-5.02,4.91
				c-2.16,2.19-4.9,4.82-7.97,8.05c-1.51,1.64-3.35,3.2-5.12,5.04c-1.81,1.81-3.73,3.73-5.76,5.76
				c-16.24,16.24-39.43,39.44-67.26,67.28c-55.68,55.67-129.91,129.89-204.14,204.12C552.93,556.2,478.7,630.43,423.03,686.1
				c-3.45,3.5-6.94,6.83-10.16,10.27c-3.4,3.26-6.63,6.53-9.81,9.7c-1.61,1.56-3.09,3.21-4.64,4.75c-1.58,1.51-3.14,3-4.62,4.51
				c-3,3-5.92,5.92-8.75,8.75c-11.31,11.31-21.17,21.17-29.29,29.29c-8.12,8.12-14.5,14.5-18.85,18.85c-2.19,2.16-3.73,3.95-4.93,5
				c-1.14,1.11-1.77,1.64-1.77,1.64L326.79,775.44z"/>
			
				<radialGradient id="SVGID_00000158750115168810061110000001194361860176233605_" cx="588.4474" cy="480.2144" r="298.1463" gradientUnits="userSpaceOnUse">
				<stop  offset="0" style="stop-color:#EEC660"/>
				<stop  offset="0.1769" style="stop-color:#E9C25D"/>
				<stop  offset="0.3781" style="stop-color:#DCB554"/>
				<stop  offset="0.5905" style="stop-color:#C5A046"/>
				<stop  offset="0.7151" style="stop-color:#B4903B"/>
				<stop  offset="1" style="stop-color:#947121"/>
			</radialGradient>
			<path style="fill:url(#SVGID_00000158750115168810061110000001194361860176233605_);" d="M290.3,775.94c0,0,2.31-2.33,6.64-6.7
				c4.35-4.35,10.73-10.73,18.85-18.85c16.24-16.24,39.43-39.43,67.27-67.27c55.67-55.67,129.9-129.9,204.13-204.13
				c148.46-148.46,296.92-296.92,296.92-296.92l2.48,2.48c0,0-148.46,148.46-296.92,296.92C515.44,555.7,441.21,629.93,385.54,685.6
				c-27.84,27.84-51.03,51.03-67.27,67.27c-8.12,8.12-14.5,14.5-18.85,18.85c-4.37,4.33-6.7,6.64-6.7,6.64L290.3,775.94z"/>
			
				<radialGradient id="SVGID_00000139285687624739447050000017126675323588482743_" cx="551.4413" cy="480.2276" r="297.5697" gradientUnits="userSpaceOnUse">
				<stop  offset="0" style="stop-color:#EEC660"/>
				<stop  offset="0.1769" style="stop-color:#E9C25D"/>
				<stop  offset="0.3781" style="stop-color:#DCB554"/>
				<stop  offset="0.5905" style="stop-color:#C5A046"/>
				<stop  offset="0.7151" style="stop-color:#B4903B"/>
				<stop  offset="1" style="stop-color:#947121"/>
			</radialGradient>
			<path style="fill:url(#SVGID_00000139285687624739447050000017126675323588482743_);" d="M253.87,776.5c0,0,2.31-2.33,6.64-6.7
				c4.35-4.35,10.73-10.73,18.85-18.85c16.24-16.24,39.43-39.43,67.27-67.27c55.67-55.67,129.9-129.9,204.13-204.13
				s148.46-148.46,204.13-204.13c27.84-27.84,51.03-51.03,67.27-67.27c8.12-8.12,14.5-14.5,18.85-18.85c4.33-4.37,6.7-6.64,6.7-6.64
				l1.3,1.3c0,0-2.28,2.36-6.64,6.7c-4.35,4.35-10.73,10.73-18.85,18.85c-16.24,16.24-39.43,39.43-67.27,67.27
				c-55.67,55.67-129.9,129.9-204.13,204.13S403.66,629.37,347.99,685.04c-27.84,27.84-51.03,51.03-67.27,67.27
				c-8.12,8.12-14.5,14.5-18.85,18.85c-4.37,4.33-6.7,6.64-6.7,6.64L253.87,776.5z"/>
			
				<radialGradient id="SVGID_00000183221054539756753110000011295468944998006950_" cx="514.452" cy="480.2295" r="297.0678" gradientUnits="userSpaceOnUse">
				<stop  offset="0" style="stop-color:#EEC660"/>
				<stop  offset="0.1769" style="stop-color:#E9C25D"/>
				<stop  offset="0.3781" style="stop-color:#DCB554"/>
				<stop  offset="0.5905" style="stop-color:#C5A046"/>
				<stop  offset="0.7151" style="stop-color:#B4903B"/>
				<stop  offset="1" style="stop-color:#947121"/>
			</radialGradient>
			<path style="fill:url(#SVGID_00000183221054539756753110000011295468944998006950_);" d="M217.38,777c0,0,2.31-2.33,6.64-6.7
				c4.35-4.35,10.73-10.73,18.85-18.85c16.24-16.24,39.43-39.43,67.27-67.27c55.67-55.67,129.9-129.9,204.13-204.13
				s148.46-148.46,204.13-204.13c27.84-27.84,51.03-51.03,67.27-67.27c8.12-8.12,14.5-14.5,18.85-18.85c4.33-4.36,6.7-6.64,6.7-6.64
				l0.3,0.3c0,0-2.28,2.37-6.64,6.7c-4.35,4.35-10.73,10.73-18.85,18.85c-16.24,16.24-39.43,39.43-67.27,67.27
				c-55.67,55.67-129.9,129.9-204.13,204.13S366.17,628.87,310.5,684.54c-27.84,27.84-51.03,51.03-67.27,67.27
				c-8.12,8.12-14.5,14.5-18.85,18.85c-4.37,4.33-6.7,6.64-6.7,6.64L217.38,777z"/>
		</g>
	</g>
</g>
</svg>
