<?xml version="1.0" encoding="UTF-8" standalone="no"?>
<!-- Created with Inkscape (http://www.inkscape.org/) -->

<svg
   width="66.042007mm"
   height="74.080688mm"
   viewBox="0 0 66.042007 74.080688"
   version="1.1"
   id="svg5831"
   xmlns="http://www.w3.org/2000/svg"
   xmlns:svg="http://www.w3.org/2000/svg">
  <defs
     id="defs5828" />
  <g
     id="layer1"
     transform="translate(-56.753188,-17.604818)">
    <rect
       style="fill:#ffffff;stroke:#ffffff;stroke-width:0.101858"
       id="rect9385"
       width="65.855385"
       height="73.619247"
       x="56.877228"
       y="17.986076" />
    <g
       id="g1400"
       transform="matrix(0.26458333,0,0,0.26458333,53.842771,11.829261)">
	<path
   class="st1"
   d="M 256.9,100.19 C 241.99,90.77 227.16,81.2 212.29,71.68 187.15,55.59 162,39.5 136.86,23.4 c -0.06,-0.04 -0.08,-0.15 -0.13,-0.23 -0.65,0 -1.3,0 -1.95,0 -20.67,13.27 -41.33,26.55 -62,39.81 -19.2,12.33 -38.43,24.62 -57.62,36.97 -1.5,0.97 -2.78,2.36 -4.16,3.56 0,5.83 0,11.66 0,17.49 1.71,2.71 1.71,2.71 8.66,3.47 0,3.11 0,6.26 0,9.42 0,8.54 0.01,9.53 6.04,9.65 0,0 0,-0.01 0.01,-0.01 0.33,-0.02 0.67,-0.01 1,-0.01 72.57,0 145.13,0 217.7,0.01 0.06,0 0.11,0.02 0.17,0.03 0.68,0 1.37,0 2.05,-0.01 3.94,-0.04 5.22,-1.48 5.24,-5.93 0.02,-4.35 0.01,-8.7 0.01,-13.36 1.44,0 2.63,0.03 3.82,-0.01 3.27,-0.1 4.78,-1.74 4.83,-5.38 0.05,-3.82 -0.15,-7.66 0.06,-11.47 0.18,-3.45 -1.02,-5.52 -3.69,-7.21 z m -13.18,34.22 c -71.97,0 -143.79,0 -215.92,0 0,-3.41 0,-6.64 0,-9.99 72.03,0 143.92,0 215.92,0 0,3.38 0,6.6 0,9.99 z m 8.7,-21.98 c -0.13,0.78 -0.1,1.59 -0.15,2.54 -77.72,0 -155.3,0 -233.14,0 0,-2.13 -0.21,-4.16 0.09,-6.07 0.14,-0.9 1.16,-1.83 1.98,-2.36 27.38,-17.6 54.78,-35.15 82.17,-52.71 10.07,-6.45 20.17,-12.85 30.19,-19.4 1.62,-1.06 2.75,-1.04 4.37,0 36.95,23.75 73.91,47.47 110.95,71.05 2.72,1.72 4.12,3.49 3.54,6.95 z"
   id="path1384"
   style="fill:#3c3c3c" />

	<g
   id="g1398">
		<path
   class="st0"
   d="m 208.36,159.11 c 0.53,0.51 0.94,1.57 0.94,2.38 0.04,28.66 0.02,57.32 0.01,85.98 0,0.12 -0.03,0.26 -0.09,0.5 2.8,0 5.6,0 8.4,0 0,-28.78 0,-57.57 0,-86.59 2.81,0 5.68,0 8.83,0 0,28.88 0,57.61 0,86.59 2.77,0 5.55,0 8.32,0 -0.04,-0.96 -0.09,-1.75 -0.09,-2.54 -0.01,-27.6 0,-55.2 -0.02,-82.8 0,-1.7 0.17,-2.99 1.49,-4.17 2.13,-1.91 2.77,-4.87 2.86,-7.95 0.03,-1.04 0.02,-2.1 0.01,-3.31 -2.75,0 -5.51,0 -8.26,0 0,1.33 0,2.62 0,4.05 -5.77,0 -11.54,0 -17.46,0 0,-1.33 0,-2.65 0,-4.05 -2.77,0 -5.54,0 -8.3,0 0,1.02 -0.01,2.04 0,3.04 0.02,3.53 0.95,6.55 3.36,8.87 z"
   id="path1386"
   style="fill:#e0a600" />

		<path
   class="st0"
   d="m 122.21,159.18 c 0.47,0.44 0.85,1.42 0.85,2.14 0.02,28.84 0,57.69 -0.03,86.53 0,0.03 -0.01,0.07 -0.04,0.11 2.8,0 5.6,0 8.4,0 0,-28.85 0,-57.61 0,-86.59 2.81,0 5.69,0 8.74,0 0,28.75 0,57.5 0,86.59 2.77,0 5.53,0 8.3,0 0,-0.94 0,-1.87 0,-2.81 0,-27.4 0.01,-54.8 -0.02,-82.21 0,-1.92 0.56,-3.16 1.58,-4.72 1.4,-2.14 2.04,-5.04 2.73,-7.72 0.25,-0.98 0.16,-2.09 0.1,-3.33 -2.8,0 -5.59,0 -8.39,0 0,1.3 0,2.63 0,4.15 -5.82,0 -11.52,0 -17.37,0 0,-1.42 0,-2.75 0,-4.16 -2.77,0 -5.54,0 -8.3,0 0,0.89 0,1.75 0,2.59 -0.03,3.76 0.85,7 3.45,9.43 z"
   id="path1388"
   style="fill:#e0a600" />

		<path
   class="st0"
   d="m 165.22,159.06 c 0.53,0.51 0.93,1.6 0.93,2.42 0.04,28.65 0.02,57.3 0,85.96 0,0.14 -0.04,0.28 -0.09,0.53 2.79,0 5.57,0 8.36,0 0,-28.89 0,-57.66 0,-86.73 3.03,0 5.86,0 8.88,0 0,28.89 0,57.73 0,86.73 2.75,0 5.49,0 8.24,0 0,-0.9 0,-1.73 0,-2.54 0,-27.6 0.01,-55.21 -0.02,-82.81 0,-1.75 0.52,-2.86 1.48,-4.23 1.28,-1.81 2.12,-4.21 2.67,-6.52 0.34,-1.42 0.19,-3.01 0.11,-4.68 -2.7,0 -5.41,0 -8.11,0 0,1.37 0,2.68 0,4.11 -5.9,0 -11.67,0 -17.6,0 0,-1.51 0,-2.8 0,-4.11 -2.71,0 -5.42,0 -8.13,0 0,1.02 0.01,2.01 -0.01,2.99 -0.05,3.56 0.88,6.55 3.29,8.88 z"
   id="path1390"
   style="fill:#e0a600" />

		<path
   class="st1"
   d="m 260.53,278.57 c -0.01,-5.02 -1.33,-6.64 -5.39,-6.68 -0.96,-0.01 -1.93,0 -3.27,0 0,-4.68 0,-9.15 0,-13.61 0,-6.42 -1.07,-7.74 -6.27,-7.74 -2.42,0 -4.85,0 -7.32,0 0.13,1.01 -0.49,0.96 -1.17,0.96 -71.86,-0.01 -143.71,-0.01 -215.69,-0.01 -1.36,1.01 -1.76,2.98 -1.76,6.62 0,4.48 0,8.96 0,13.6 -3.28,0.56 -7.02,-1.06 -8.66,3.89 0,8.01 0,16.03 0,24.04 1.28,2.72 3.24,3.52 5.71,3.52 79.33,-0.04 158.66,-0.03 237.99,-0.03 4.53,0 5.82,-1.59 5.82,-7.13 0.01,-5.81 0.02,-11.62 0.01,-17.43 z M 27.89,260.73 c 71.93,0 143.82,0 215.75,0 0,3.78 0,7.4 0,11.08 -71.99,0 -143.76,0 -215.75,0 0,-3.68 0,-7.3 0,-11.08 z m 224.29,32.11 c -77.54,0 -155.18,0 -232.9,0 0,-3.65 0,-7.2 0,-10.91 77.67,0 155.17,0 232.9,0 0,3.59 0,7.13 0,10.91 z"
   id="path1392"
   style="fill:#3c3c3c" />

		<path
   class="st0"
   d="m 78.96,159.04 c 0.57,0.57 0.98,1.77 0.99,2.68 0.05,28.28 0.04,56.55 0.03,84.83 0,0.44 -0.08,0.9 -0.15,1.41 2.79,0 5.57,0 8.36,0 0,-28.9 0,-57.67 0,-86.62 2.93,0 5.81,0 8.88,0 0,28.8 0,57.63 0,86.62 2.8,0 5.59,0 8.39,0 -0.05,-0.86 -0.11,-1.75 -0.11,-2.64 -0.01,-27.59 0,-55.19 -0.03,-82.78 0,-1.76 0.54,-2.86 1.51,-4.21 1.24,-1.72 2.09,-4.04 2.58,-6.26 0.34,-1.5 0.19,-3.16 0.12,-4.89 -2.69,0 -5.38,0 -8.08,0 0,1.31 0,2.58 0,4.02 -5.8,0 -11.63,0 -17.6,0 0,-1.34 0,-2.65 0,-4.02 -2.71,0 -5.43,0 -8.14,0 0,1.08 0.01,2.16 0,3.25 -0.04,3.47 0.95,6.33 3.25,8.61 z"
   id="path1394"
   style="fill:#e0a600" />

		<path
   class="st0"
   d="m 35.96,159.16 c 0.52,0.48 0.86,1.6 0.86,2.42 0.04,28.57 0.03,57.13 0.02,85.7 0,0.18 -0.04,0.38 -0.1,0.68 2.81,0 5.62,0 8.43,0 0,-28.84 0,-57.6 0,-86.59 2.81,0 5.68,0 8.74,0 0,28.75 0,57.5 0,86.59 2.76,0 5.52,0 8.28,0 0,-0.96 0,-1.87 0,-2.77 0,-27.51 0.01,-55.01 -0.02,-82.52 0,-1.7 0.17,-3.01 1.49,-4.19 2.07,-1.84 2.77,-4.66 2.86,-7.65 0.04,-1.18 0.02,-2.36 0.01,-3.65 -2.79,0 -5.57,0 -8.36,0 0,1.3 0,2.61 0,4.05 -5.67,0 -11.44,0 -17.35,0 0,-1.31 0,-2.62 0,-4.05 -2.77,0 -5.54,0 -8.31,0 0,1.02 -0.01,1.94 0.01,2.85 0.04,3.62 0.91,6.76 3.44,9.13 z"
   id="path1396"
   style="fill:#e0a600" />

	</g>

</g>
  </g>
</svg>
