<?xml version="1.0" encoding="iso-8859-1"?>
<!-- Generator: Adobe Illustrator 26.2.1, SVG Export Plug-In . SVG Version: 6.00 Build 0)  -->
<svg version="1.1" id="Layer_1" xmlns="http://www.w3.org/2000/svg" xmlns:xlink="http://www.w3.org/1999/xlink" x="0px" y="0px"
	 viewBox="0 0 247.4 60.85" style="enable-background:new 0 0 247.4 60.85;" xml:space="preserve">
<style type="text/css">
	.st0{fill:#3C3C3C;}
	.st1{fill:#E0A600;}
</style>
<g>
	<path class="st0" d="M64.51,27.95c0.42,3.67,2.82,5.97,5.71,7.89c-2.16,2.74-2.18,3.06-0.2,5.54c-1.06,0.47-1.87,0.77-2.64,1.17
		c-4.61,2.42-5.3,8.45-1.36,11.83c4.79,4.11,15.86,4.14,20.67,0.06c3.87-3.29,3.63-8.87-0.78-11.44c-2.01-1.17-4.5-1.54-6.77-2.26
		c-1.43-0.45-2.87-0.86-4.31-1.29c0.02-0.33,0.03-0.67,0.05-1c1.01-0.42,2-0.89,3.03-1.26c1.53-0.56,3.2-0.84,4.61-1.6
		c4.75-2.59,6.02-6.25,4.87-13.49c0.8-0.16,1.61-0.32,2.34-0.47c0-1.74,0-3.3,0-4.69c-4.56-0.33-8.87-0.77-13.18-0.93
		C69.29,15.74,63.74,21.32,64.51,27.95z M76.64,45.61c1.14,0.22,2.66,0.25,3.9,0.85c0.87,0.42,1.94,1.65,1.88,2.44
		c-0.08,0.98-1.13,2.55-1.94,2.68c-2.49,0.39-5.11,0.46-7.61,0.12c-0.97-0.13-2.51-1.78-2.41-2.57c0.13-1.08,1.42-2.27,2.5-2.93
		C73.86,45.66,75.19,45.81,76.64,45.61z M81.34,26.57c0.05,2.78-2.26,5.14-5.06,5.18c-2.77,0.04-5.18-2.27-5.23-5.03
		c-0.05-2.73,2.32-5.15,5.08-5.18C78.96,21.51,81.29,23.76,81.34,26.57z"/>
	<path class="st0" d="M145.18,34.41c-5.02-4.75-5.64-12-1.44-17.18c2.35-2.9,5.4-4.61,9.13-5.02c5.05-0.56,8.87,1.8,12.19,5.44
		c1.68-1.81,3.16-3.4,4.6-4.95c-5.24-6.67-14.54-9.11-22.69-6.16c-8.13,2.95-13.6,10.86-13.21,19.1c0.42,9,6.39,16.32,15.12,18.55
		c8.03,2.05,16.97-0.93,20.85-7.05c-1.49-1.56-3-3.15-4.51-4.73C157.67,39.09,150.82,39.74,145.18,34.41z"/>
	<path class="st0" d="M50.72,16.76c-6.8-2.28-14.28,0.53-17.72,6.66c-3.39,6.04-1.86,13.84,3.58,18.2c5.17,4.14,12.96,4.3,18.65,0.6
		l0,0l0.02-0.01c0.49-0.32,0.97-0.67,1.43-1.05l0.24-0.18l-3.24-4.4l-1.69,1.24l0.04,0.05c-0.65,0.14-1.44,0.41-2.49,0.77
		c-4.99,1.72-10.67-1.07-10.89-5.44c3.56,0,7.12,0,10.67,0c3.56,0,7.12,0,10.84,0C61.27,25.26,57.62,19.07,50.72,16.76z
		 M38.59,27.53c0.92-3.6,3.67-5.77,7.21-5.78c3.55-0.01,6.34,2.13,7.33,5.78C48.26,27.53,43.44,27.53,38.59,27.53z"/>
	<path class="st0" d="M186.3,15.98c-8.22-0.02-14.88,6.49-14.85,14.53c0.03,7.9,6.62,14.3,14.74,14.31
		c8.29,0.01,14.67-6.16,14.72-14.21C200.94,22.33,194.63,16,186.3,15.98z M194.3,30.62c-0.17,4.66-3.86,8.41-8.22,8.33
		c-4.36-0.08-7.94-3.98-7.9-8.61c0.04-4.64,3.68-8.48,8.05-8.48C190.68,21.86,194.47,25.97,194.3,30.62z"/>
	<path class="st0" d="M109.03,17.41c-5.19-2.83-12.86-1.48-17.09,3.04c1.2,1.21,2.4,2.42,3.56,3.58c6.88-3.8,11.73-2.58,12.29,3.38
		c-1.44,0-2.88-0.22-4.23,0.04c-2.89,0.56-5.94,0.94-8.53,2.19c-3.51,1.69-4.7,5.55-3.68,9.42c0.83,3.15,3.9,5.67,7.53,5.66
		c2.36-0.01,4.71-0.66,7.07-1.04c0.62-0.1,1.26-0.43,1.85-0.36v1.15h6.59c0-7,0.2-13.31-0.08-19.6
		C114.15,21.53,111.99,19.03,109.03,17.41z M100.79,39.08c-1.14-0.28-2.64-1.64-2.79-2.68c-0.15-1.02,0.96-2.95,1.93-3.27
		c2.37-0.8,4.98-0.91,7.65-1.32C108.6,37.58,105.84,40.3,100.79,39.08z"/>
	<path class="st0" d="M241.86,24.81c-0.2-4.39-3.38-7.98-7.78-8.43c-3.25-0.33-6.64,0.61-10.27,1.02v-0.92h-6.55v0.47
		c0,0.77,0,1.53,0,2.3c0,8.2,0,16.42,0,24.76c2.22,0,4.28,0,6.65,0c0-5.97-0.03-11.8,0.03-17.64c0.01-0.99,0.19-2.64,0.72-2.84
		c2.17-0.8,4.54-1.66,6.77-1.52c2.42,0.15,3.72,2.34,3.89,4.74c0.21,2.87,0.14,5.76,0.16,8.64c0.02,2.85,0,5.69,0,8.65
		c2.32,0,4.21,0,6.44,0C241.93,37.45,242.15,31.12,241.86,24.81z"/>
	<path class="st0" d="M10.96,6.34c-2.65,0-4.83,0-7.07,0c0,12.68,0,25.18,0,37.67c8.51,0,16.78,0,25.1,0c0-2.3,0-4.43,0-6.91
		c-6.1,0-11.94,0-18.04,0C10.96,26.69,10.96,16.63,10.96,6.34z"/>
	<path class="st0" d="M130.98,39.09c-4.01,0.22-4.47-0.2-4.48-4.1c-0.01-9.12,0-18.23,0-27.35c0-1.01,0-2.01,0-2.9
		c-2.54,0-4.6,0-6.78,0c0,11.26-0.06,22.29,0.04,33.31c0.03,3.37,1.9,5.59,4.8,6.43c1.91,0.55,3.35,0.7,4.38,0.38l0,0h2.1V39.4H131
		C130.99,39.3,130.99,39.19,130.98,39.09z"/>
	<path class="st0" d="M204.74,44.09c2.17,0,4.08,0,6.25,0c0-9.28,0-18.31,0-27.3c-2.23,0-4.21,0-6.25,0
		C204.74,25.98,204.74,35,204.74,44.09z"/>
	<path class="st0" d="M204.47,11.46c2.25,0,4.45,0,6.7,0c0-2.33,0-4.39,0-6.62c-2.31,0-4.45,0-6.7,0
		C204.47,7.11,204.47,9.19,204.47,11.46z"/>
</g>
</svg>
