<?xml version="1.0" encoding="iso-8859-1"?>
<!-- Generator: Adobe Illustrator 26.2.1, SVG Export Plug-In . SVG Version: 6.00 Build 0)  -->
<svg version="1.1" id="Layer_1" xmlns="http://www.w3.org/2000/svg" xmlns:xlink="http://www.w3.org/1999/xlink" x="0px" y="0px"
	 viewBox="0 0 572.83 123.22" style="enable-background:new 0 0 572.83 123.22;" xml:space="preserve">
<style type="text/css">
	.st0{fill:#3C3C3C;}
	.st1{fill:#E0A600;}
</style>
<g>
	<path class="st0" d="M251,59.35c0.75,6.46,4.97,10.51,10.05,13.89c-3.8,4.83-3.83,5.38-0.34,9.76c-1.87,0.82-3.3,1.35-4.64,2.05
		c-8.12,4.27-9.33,14.88-2.39,20.83c8.44,7.24,27.93,7.29,36.39,0.1c6.81-5.79,6.38-15.62-1.37-20.15
		c-3.54-2.07-7.92-2.72-11.93-3.98c-2.52-0.79-5.06-1.52-7.59-2.28c0.03-0.59,0.06-1.18,0.08-1.77c1.78-0.74,3.53-1.56,5.34-2.22
		c2.7-0.98,5.64-1.47,8.12-2.83c8.36-4.56,10.6-11,8.58-23.75c1.41-0.28,2.84-0.57,4.13-0.82c0-3.05,0-5.81,0-8.25
		c-8.03-0.58-15.61-1.35-23.21-1.63C259.42,37.86,249.65,47.67,251,59.35z M272.36,90.45c2.01,0.39,4.68,0.44,6.87,1.49
		c1.53,0.73,3.42,2.91,3.31,4.3c-0.14,1.72-1.98,4.49-3.42,4.72c-4.39,0.69-9,0.81-13.4,0.22c-1.7-0.23-4.41-3.13-4.25-4.53
		c0.23-1.91,2.49-3.99,4.4-5.16C267.47,90.53,269.81,90.8,272.36,90.45z M280.64,56.92c0.09,4.89-3.98,9.05-8.92,9.13
		c-4.88,0.07-9.12-4-9.21-8.86c-0.09-4.81,4.09-9.08,8.94-9.12C276.44,48.02,280.55,51.98,280.64,56.92z"/>
	<path class="st0" d="M393.05,70.72c-8.84-8.36-9.93-21.12-2.53-30.25c4.14-5.11,9.5-8.11,16.07-8.84
		c8.88-0.99,15.62,3.17,21.46,9.59c2.96-3.18,5.57-5.98,8.1-8.71c-9.22-11.74-25.6-16.05-39.95-10.85
		c-14.31,5.19-23.95,19.11-23.27,33.63c0.74,15.84,11.25,28.74,26.62,32.67c14.13,3.62,29.87-1.64,36.71-12.41
		c-2.63-2.75-5.29-5.54-7.94-8.33C415.04,78.97,402.98,80.11,393.05,70.72z"/>
	<path class="st0" d="M226.72,39.65c-11.98-4.01-25.14,0.93-31.2,11.72c-5.97,10.63-3.27,24.38,6.3,32.05
		c9.11,7.3,22.83,7.57,32.84,1.07l0,0l0.03-0.02c0.87-0.57,1.71-1.19,2.52-1.85l0.43-0.32l-5.71-7.75l-2.98,2.19l0.07,0.09
		c-1.14,0.25-2.54,0.72-4.39,1.36c-8.79,3.03-18.79-1.89-19.17-9.58c6.27,0,12.53,0,18.79,0c6.27,0,12.54,0,19.09,0
		C245.31,54.62,238.87,43.71,226.72,39.65z M205.37,58.6c1.61-6.34,6.47-10.17,12.7-10.18c6.26-0.02,11.17,3.76,12.9,10.18
		C222.39,58.6,213.91,58.6,205.37,58.6z"/>
	<path class="st0" d="M465.45,38.27c-14.47-0.04-26.2,11.43-26.15,25.58c0.05,13.91,11.65,25.18,25.95,25.2
		c14.6,0.02,25.84-10.84,25.92-25.02C491.24,49.45,480.12,38.31,465.45,38.27z M479.54,64.05c-0.29,8.21-6.8,14.81-14.47,14.66
		c-7.68-0.15-13.98-7.01-13.91-15.17c0.07-8.17,6.48-14.93,14.17-14.92C473.16,48.62,479.84,55.87,479.54,64.05z"/>
	<path class="st0" d="M329.4,40.8c-9.14-4.98-22.64-2.6-30.1,5.35c2.11,2.12,4.23,4.26,6.27,6.31c12.12-6.69,20.66-4.54,21.65,5.95
		c-2.53,0-5.07-0.38-7.45,0.08c-5.08,0.99-10.45,1.65-15.02,3.85c-6.18,2.98-8.28,9.77-6.48,16.59c1.46,5.54,6.87,9.99,13.25,9.97
		c4.15-0.01,8.3-1.16,12.44-1.83c1.09-0.18,2.22-0.77,3.25-0.63v2.03h11.61c0-12.32,0.35-23.44-0.14-34.52
		C338.42,48.05,334.61,43.64,329.4,40.8z M314.89,78.94c-2.01-0.49-4.65-2.89-4.92-4.71c-0.26-1.8,1.7-5.19,3.4-5.77
		c4.18-1.41,8.77-1.6,13.47-2.32C328.64,76.31,323.79,81.1,314.89,78.94z"/>
	<path class="st0" d="M563.28,53.82c-0.35-7.73-5.95-14.05-13.7-14.84c-5.73-0.58-11.69,1.07-18.08,1.8v-1.61h-11.53V40
		c0,1.35,0,2.7,0,4.05c0,14.43,0,28.91,0,43.61c3.9,0,7.54,0,11.71,0c0-10.51-0.06-20.78,0.06-31.06c0.02-1.74,0.33-4.65,1.26-5
		c3.82-1.4,7.99-2.93,11.92-2.68c4.27,0.27,6.55,4.13,6.85,8.34c0.36,5.05,0.25,10.14,0.28,15.21c0.04,5.01,0.01,10.02,0.01,15.23
		c4.08,0,7.42,0,11.34,0C563.41,76.08,563.79,64.93,563.28,53.82z"/>
	<path class="st0" d="M156.72,21.29c-4.66,0-8.5,0-12.44,0c0,22.32,0,44.35,0,66.32c14.99,0,29.55,0,44.2,0c0-4.05,0-7.8,0-12.17
		c-10.73,0-21.02,0-31.76,0C156.72,57.13,156.72,39.42,156.72,21.29z"/>
	<path class="st0" d="M368.04,78.96c-7.07,0.39-7.87-0.35-7.88-7.22c-0.02-16.05-0.01-32.1-0.01-48.16c0-1.77,0-3.55,0-5.11
		c-4.47,0-8.11,0-11.94,0c0,19.82-0.11,39.24,0.06,58.66c0.05,5.94,3.35,9.85,8.46,11.33c3.36,0.97,5.89,1.23,7.71,0.67l0,0h3.7
		v-9.63h-0.06C368.06,79.33,368.05,79.15,368.04,78.96z"/>
	<path class="st0" d="M497.93,87.78c3.81,0,7.19,0,11,0c0-16.34,0-32.23,0-48.08c-3.92,0-7.41,0-11,0
		C497.93,55.88,497.93,71.77,497.93,87.78z"/>
	<path class="st0" d="M497.44,30.31c3.96,0,7.83,0,11.8,0c0-4.09,0-7.73,0-11.66c-4.07,0-7.84,0-11.8,0
		C497.44,22.66,497.44,26.32,497.44,30.31z"/>
</g>
<g>
	<path class="st0" d="M73.41,8.56c2.16,3.81,4.2,7.33,6.13,10.92c0.22,0.41-0.11,1.26-0.41,1.78c-7.88,13.58-15.79,27.15-23.7,40.71
		c-7.45,12.79-14.91,25.58-22.37,38.37c-0.28,0.48-0.53,0.97-0.93,1.71c0.75,0.03,1.33,0.08,1.9,0.08
		c22.51,0.03,45.02,0.06,67.53,0.1c8.03,0.01,16.05,0.08,24.08,0.07c1.14,0,1.83,0.31,2.4,1.35c1.53,2.78,3.18,5.5,4.82,8.3
		c-39.62,0-79.06,0-118.91,0C33.84,77.37,53.55,43.1,73.41,8.56z"/>
	<path class="st1" d="M83.61,26.53c2.79,4.8,5.35,9.21,7.9,13.62c1.85,3.21,3.7,6.42,5.56,9.62c0.36,0.62,0.7,1.18-0.18,1.68
		c-2.43,1.38-4.84,2.8-7.42,4.29c-1.79-3.14-3.5-6.13-5.5-9.63c-8.13,13.51-16.05,26.66-24.15,40.13c15.72,0,30.99,0,46.68,0
		c-1.98-3.59-3.85-6.99-5.81-10.55c2.79-1.62,5.49-3.19,8.49-4.93c4.86,8.4,9.67,16.71,14.6,25.21c-27.04,0-53.87,0-81.13,0
		C56.37,72.7,69.88,49.8,83.61,26.53z"/>
</g>
</svg>
