<?xml version="1.0" encoding="iso-8859-1"?>
<!-- Generator: Adobe Illustrator 26.2.1, SVG Export Plug-In . SVG Version: 6.00 Build 0)  -->
<svg version="1.1" id="Layer_1" xmlns="http://www.w3.org/2000/svg" xmlns:xlink="http://www.w3.org/1999/xlink" x="0px" y="0px"
	 viewBox="0 0 98.16 82.56" style="enable-background:new 0 0 98.16 82.56;" xml:space="preserve">
<style type="text/css">
	.st0{fill:#3C3C3C;}
	.st1{fill:#E0A600;}
</style>
<g>
	<path class="st0" d="M47.97,3.47c1.54,2.71,2.99,5.22,4.37,7.78c0.16,0.29-0.08,0.9-0.29,1.27c-5.61,9.67-11.25,19.34-16.88,29
		c-5.31,9.11-10.62,18.22-15.93,27.33c-0.2,0.34-0.38,0.69-0.66,1.22c0.53,0.02,0.94,0.06,1.35,0.06
		c16.03,0.02,32.07,0.04,48.1,0.07c5.72,0.01,11.44,0.06,17.15,0.05c0.81,0,1.3,0.22,1.71,0.96c1.09,1.98,2.27,3.92,3.43,5.91
		c-28.23,0-56.32,0-84.71,0C19.78,52.48,33.82,28.07,47.97,3.47z"/>
	<path class="st1" d="M55.23,16.27c1.98,3.42,3.81,6.56,5.63,9.7c1.32,2.28,2.63,4.57,3.96,6.85c0.26,0.44,0.5,0.84-0.13,1.19
		c-1.73,0.99-3.45,1.99-5.28,3.05c-1.28-2.23-2.5-4.37-3.92-6.86c-5.79,9.63-11.43,18.99-17.2,28.58c11.2,0,22.07,0,33.26,0
		c-1.41-2.56-2.74-4.98-4.14-7.52c1.99-1.15,3.91-2.27,6.05-3.51c3.46,5.98,6.89,11.9,10.4,17.96c-19.26,0-38.37,0-57.8,0
		C35.82,49.16,45.45,32.84,55.23,16.27z"/>
</g>
</svg>
