<?xml version="1.0" encoding="UTF-8" standalone="no"?>
<!-- Created with Inkscape (http://www.inkscape.org/) -->

<svg
   width="66.042007mm"
   height="74.080688mm"
   viewBox="0 0 66.042007 74.080688"
   version="1.1"
   id="svg5831"
   inkscape:export-filename="Fund.svg"
   inkscape:export-xdpi="96"
   inkscape:export-ydpi="96"
   xmlns:inkscape="http://www.inkscape.org/namespaces/inkscape"
   xmlns:sodipodi="http://sodipodi.sourceforge.net/DTD/sodipodi-0.dtd"
   xmlns="http://www.w3.org/2000/svg"
   xmlns:svg="http://www.w3.org/2000/svg">
  <sodipodi:namedview
     id="namedview5833"
     pagecolor="#505050"
     bordercolor="#eeeeee"
     borderopacity="1"
     inkscape:showpageshadow="0"
     inkscape:pageopacity="0"
     inkscape:pagecheckerboard="0"
     inkscape:deskcolor="#505050"
     inkscape:document-units="mm"
     showgrid="false" />
  <defs
     id="defs5828" />
  <g
     inkscape:label="Layer 1"
     inkscape:groupmode="layer"
     id="layer1"
     transform="translate(-56.753188,-17.604818)">
    <rect
       style="fill:#ffffff;stroke:#ffffff;stroke-width:0.101858"
       id="rect9385"
       width="65.855385"
       height="73.619247"
       x="56.877228"
       y="17.986076" />
    <g
       id="g1350"
       transform="matrix(0.26036502,0,0,0.26036502,53.00037,12.065121)">
      <path
         class="st1"
         d="m 264.19,221.89 c -3.49,-6.52 -11.39,-9.93 -19.79,-8.93 -11.69,1.4 -21.07,8.06 -30.97,13.56 -1.17,0.65 -2.36,1.28 -3.61,1.94 -3.31,2.21 -6.67,4.34 -9.84,6.74 -0.42,0.32 -0.84,0.63 -1.27,0.92 -1.53,1.89 -4.19,2.65 -6.28,1.37 -0.7,-0.19 -1.37,-0.46 -2.03,-0.78 -1.69,-0.81 -3.3,-1.79 -4.97,-2.65 -1.61,-0.83 -3.26,-1.57 -4.94,-2.27 v 0.33 c -6.72,-2.28 -13.14,-4.41 -19.45,-6.67 -2.33,-0.68 -4.65,-1.38 -6.94,-2.19 -2,-0.71 -3.99,-1.46 -5.99,-2.2 0,0.04 0,0.08 -0.01,0.12 -3.51,-1.24 -6.47,-2.29 -9.38,-3.32 -3.16,-0.94 -6.36,-1.77 -9.56,-2.52 -1.9,-0.45 -3.79,-0.78 -5.69,-1.04 h -18.21 v -0.47 c -0.69,0.08 -1.39,0.18 -2.07,0.31 -2.79,0.51 -5.34,1.65 -7.93,2.73 -1.33,1.23 -3.39,1.87 -6.32,1.96 0,-2.07 0.01,-4.03 0,-5.99 -0.05,-7.15 -1.03,-8.11 -8.4,-8.15 -3.8,-0.02 -7.59,0 -12.02,0 0,-3.76 0.05,-6.83 -0.01,-9.9 -0.13,-6.35 -1.42,-7.63 -7.88,-7.65 -12.47,-0.04 -24.94,-0.01 -37.41,-0.01 -0.73,0 -1.47,0 -2.2,0 -3.32,0.03 -6.69,0.49 -6.71,4.69 -0.03,4.47 3.42,5.03 6.99,5.01 3.3,-0.02 6.6,0 9.9,0 8.97,0 17.94,0 27.38,0 v 98.27 c -12.65,0 -24.91,0 -37.16,0 -3.49,0 -7.17,0.3 -7.12,4.82 0.05,4.4 3.58,4.84 7.16,4.82 11.19,-0.06 22.37,-0.02 33.56,-0.02 12.19,0 12.19,0 13.71,-11.86 0.04,-0.33 0.32,-0.64 0.67,-1.31 2.54,0 5.26,0 7.98,0 9.98,0 9.98,0 12.53,-9.09 1.54,0.52 3.06,1.08 4.61,1.53 17.03,4.92 33.94,10.3 51.13,14.56 12.54,3.1 25.36,4.12 37.4,-2.92 15.64,-9.16 31.84,-17.47 46.95,-27.42 11.22,-7.39 21.55,-16.34 31.41,-25.53 5.91,-5.49 6.81,-13.27 2.78,-20.79 z M 79.15,281.61 h -10.3 v -66.92 h 10.3 z m 175.23,-45.04 c -3.03,3.63 -6.63,6.87 -10.32,9.85 -21.53,17.34 -45.59,30.59 -70.22,42.89 -7.12,3.55 -14.4,2.05 -21.58,0.94 -20.53,-3.18 -40.36,-8.83 -59.45,-17.12 -3.09,-1.34 -4.03,-3.08 -3.9,-6.25 0.22,-5.31 0.06,-10.63 0.06,-15.95 0,-5.32 0.26,-10.65 -0.1,-15.95 -0.24,-3.62 1.37,-5.43 4.34,-6.7 10.89,-4.68 22.28,-7.04 33.76,-3.58 18.57,5.6 36.89,12.02 55.26,18.25 4.34,1.47 8.96,3.34 8.69,9.15 -0.18,3.9 -5.25,7.2 -11.85,6.66 -10.93,-0.9 -21.78,-2.74 -32.66,-4.14 -2.72,-0.35 -5.6,-1.17 -8.15,-0.62 -1.82,0.39 -4.18,2.55 -4.49,4.25 -0.24,1.29 2.2,4.25 3.76,4.49 13.2,2.08 26.43,4.24 39.74,5.22 5.16,0.38 10.81,-1.52 15.74,-3.57 5.02,-2.09 8.19,-7.09 7.68,-12.39 -0.54,-5.64 2.38,-7.84 6.25,-10.1 9.97,-5.8 19.77,-11.9 29.97,-17.25 3.37,-1.77 7.81,-2.46 11.65,-2.16 8.24,0.64 11.1,7.75 5.82,14.08 z"
         id="path1329"
         style="fill:#3c3c3c" />
      <path
         class="st1"
         d="m 238.34,39.41 c -0.55,-7.97 -6.89,-14.62 -14.86,-15.62 -0.35,-0.04 -0.7,-0.18 -1.05,-0.27 -0.83,0 -1.65,0 -2.48,0 -1.32,0.31 -2.68,0.49 -3.95,0.94 -6.7,2.37 -10.65,7.07 -11.74,14.13 -0.05,0.3 -0.18,0.59 -0.27,0.89 0,0.83 0,1.65 0,2.48 0.09,0.29 0.16,0.59 0.25,0.89 -2.37,2.9 -5.69,4.69 -9.15,6.73 -7.52,4.43 -15.04,8.85 -22.41,13.52 -1.61,1.02 -3.01,1.52 -4.48,1.51 -2.44,-2.03 -5.44,-3.41 -8.72,-3.82 -0.35,-0.04 -0.7,-0.18 -1.05,-0.27 -0.83,0 -1.65,0 -2.48,0 -1.32,0.31 -2.68,0.49 -3.95,0.94 -6.7,2.37 -10.65,7.07 -11.74,14.13 -0.05,0.3 -0.18,0.59 -0.27,0.89 0,0.83 0,1.65 0,2.48 0.08,0.26 0.15,0.53 0.22,0.8 -2.71,3.72 -6.79,5.75 -10.9,8.24 -6.49,3.92 -13.08,7.68 -19.37,11.89 -1.64,1.1 -3.08,1.7 -4.55,1.81 -2.62,-2.62 -6.07,-4.42 -9.91,-4.9 -0.35,-0.04 -0.7,-0.18 -1.05,-0.27 -0.83,0 -1.65,0 -2.48,0 -1.32,0.31 -2.68,0.49 -3.95,0.94 -6.7,2.37 -10.65,7.07 -11.74,14.13 -0.05,0.3 -0.18,0.59 -0.27,0.89 0,0.83 0,1.65 0,2.48 0.67,2.21 1.06,4.56 2.05,6.62 3.52,7.3 12.05,10.91 19.95,8.67 7.76,-2.2 12.91,-9.64 12.35,-17.83 -0.03,-0.43 -0.08,-0.85 -0.15,-1.27 1.06,-1.37 2.46,-2.48 4.25,-3.52 8.74,-5.06 17.41,-10.26 25.93,-15.69 1.75,-1.11 3.26,-1.81 4.87,-1.93 4.26,4.21 10.69,5.95 16.76,4.23 7.76,-2.2 12.91,-9.64 12.35,-17.83 -0.04,-0.53 -0.1,-1.05 -0.19,-1.56 2.27,-3.47 5.75,-5.49 9.59,-7.72 6.55,-3.81 12.99,-7.8 19.4,-11.85 2.05,-1.29 3.92,-2.21 5.92,-2.45 4.25,4.34 10.78,6.16 16.93,4.41 7.76,-2.2 12.91,-9.64 12.34,-17.84 z M 99.03,118.15 c -1.26,1.56 -3.2,2.57 -5.36,2.57 -0.44,0 -0.86,-0.05 -1.28,-0.13 -0.03,0.03 -0.06,0.05 -0.09,0.08 -0.03,-0.04 -0.08,-0.08 -0.11,-0.12 -2.91,-0.64 -5.11,-3.13 -5.35,-6.17 -0.09,-0.27 -0.17,-0.55 -0.19,-0.82 -0.04,-0.55 0.13,-1.11 0.45,-1.7 0.39,-1.3 1.14,-2.42 2.14,-3.27 1.1,-0.71 2.4,-1.13 3.79,-1.13 3.86,0 7.05,3.25 7.02,7.16 -0.01,1.28 -0.39,2.49 -1.02,3.53 z m 60.21,-33.66 c -0.1,0.15 -0.2,0.3 -0.3,0.45 -0.96,0.01 -1.91,0.03 -2.87,0.04 -0.06,-0.08 -0.12,-0.16 -0.18,-0.24 -3.23,-0.57 -5.69,-3.38 -5.69,-6.77 0,-3.81 3.09,-6.9 6.9,-6.9 3.81,0 6.9,3.09 6.9,6.9 0,3.05 -2,5.61 -4.76,6.52 z m 62.68,-36.86 c -3.8,0 -6.89,-3.08 -6.89,-6.88 0.43,-3.48 3.45,-6.25 7.04,-6.25 2.9,0 5.42,1.84 6.48,4.4 0.16,0.59 0.27,1.2 0.27,1.84 0,3.8 -3.09,6.89 -6.9,6.89 z"
         id="path1331"
         style="fill:#3c3c3c" />
      <path
         class="st0"
         d="m 137.27,167.04 c 0.07,-5.26 -1.59,-7.68 -5.79,-7.64 -9.54,0.08 -19.07,0.16 -28.61,-0.02 -3.15,-0.06 -4.84,1.19 -5.5,3.91 -0.31,0.8 -0.49,1.74 -0.49,2.81 0.01,6.14 0,12.28 0,18.42 0,0 0.01,0 0.01,0 0,4.92 0,9.85 0,14.77 -0.03,0.13 -0.04,0.27 -0.07,0.4 0.03,-0.01 0.05,-0.03 0.07,-0.04 0,1.09 0,2.19 0,3.28 0.01,3.24 1.67,5.46 4.07,5.49 2.48,0.02 4.18,-2.19 4.18,-5.51 0,-2 0,-4 0,-5.99 0.04,-0.01 0.07,-0.01 0.11,-0.02 v -26.89 h 23.26 c -0.01,0.17 -0.04,0.33 -0.04,0.51 0.01,5.5 0,11 0,16.5 0,0 0.01,0 0.01,0 0,5.5 -0.01,11 0,16.5 0.01,2.91 1.72,4.89 4.18,4.92 2.54,0.02 4.29,-1.96 4.29,-4.94 0.01,-9.33 0,-18.67 0,-28 0.07,0 0.14,0.01 0.21,0.03 0.05,-2.84 0.08,-5.67 0.11,-8.49 z"
         id="path1333"
         style="fill:#e0a600" />
      <path
         class="st0"
         d="m 188.88,212.74 c 0,-8.58 0.01,-17.16 0,-25.73 0,-0.41 -0.04,-0.8 -0.1,-1.16 -0.02,-16.84 0,-33.69 -0.01,-50.53 -0.01,-7.95 -0.65,-8.64 -7.44,-8.67 -8.44,-0.03 -16.87,-0.02 -25.31,0 -4.64,0.01 -6.46,0.34 -7.17,2.94 -0.66,1.15 -1.03,2.72 -1.03,4.59 0.01,7.32 0,14.65 0,21.97 0,0 0.01,0 0.01,0 0,7.32 -0.01,14.65 0,21.97 0,0.1 0.01,0.19 0.01,0.29 -0.02,0.2 -0.03,0.4 -0.03,0.61 0.01,5.5 0,11 0,16.5 0,0 0.01,0 0.01,0 0,5.5 -0.01,11 0,16.5 0.01,2.91 1.72,4.89 4.18,4.92 2.54,0.02 4.29,-1.96 4.29,-4.94 0,-2.18 0,-4.36 0,-6.55 0.09,0.03 0.17,0.06 0.26,0.09 -0.1,-0.5 -0.16,-1.01 -0.16,-1.43 -0.07,-22.66 -0.05,-45.32 -0.05,-68.34 h 24.15 v 50.03 c -0.07,0.39 -0.11,0.79 -0.11,1.22 0.01,5.5 0,11 0,16.5 0,0 0.01,0 0.01,0 0,5.5 -0.01,11 0,16.5 0.01,2.91 1.72,4.89 4.18,4.92 2.54,0.02 4.29,-1.96 4.29,-4.94 0,-2.33 0,-4.66 0,-7 0,0 0,0 0,0 0.02,-0.09 0.02,-0.17 0.02,-0.26 z"
         id="path1335"
         style="fill:#e0a600" />
      <path
         class="st0"
         d="m 240.31,99.14 c 0.02,-5.34 -2.03,-7.69 -6.65,-7.61 -8.62,0.15 -17.24,0.03 -25.86,0.08 -7.15,0.04 -7.86,0.86 -7.87,9.14 -0.01,26.33 -0.01,52.65 -0.01,78.98 -0.08,0.41 -0.13,0.85 -0.13,1.31 0.01,5.5 0,11 0,16.5 0,0 0.01,0 0.01,0 0,5.5 -0.01,11 0,16.5 0.01,2.91 1.72,4.89 4.18,4.92 2.54,0.02 4.29,-1.96 4.29,-4.94 0,-0.98 0,-1.96 0,-2.93 0.01,-0.01 0.02,-0.02 0.03,-0.03 v -110 h 23.47 c 0.11,2.53 0.3,4.8 0.3,7.07 0.01,21.09 -0.01,42.18 0,63.26 0,3.49 -0.06,7.47 4.08,7.48 4.26,0.01 3.98,-4.2 3.99,-7.54 0.11,-24.05 0.08,-48.12 0.17,-72.19 z"
         id="path1337"
         style="fill:#e0a600" />
    </g>
  </g>
</svg>
