<svg width="398" height="159" viewBox="0 0 398 159" fill="none" xmlns="http://www.w3.org/2000/svg">
<g clip-path="url(#clip0_915_256)">
<path d="M47.9699 3.4707C49.5099 6.1807 50.9599 8.6907 52.3399 11.2507C52.4999 11.5407 52.2599 12.1507 52.0499 12.5207C46.4399 22.1907 40.7999 31.8607 35.1699 41.5207C29.8599 50.6307 24.5499 59.7407 19.2399 68.8507C19.0399 69.1907 18.8599 69.5407 18.5799 70.0707C19.1099 70.0907 19.5199 70.1307 19.9299 70.1307C35.9599 70.1507 51.9999 70.1707 68.0299 70.2007C73.7499 70.2107 79.4699 70.2607 85.1799 70.2507C85.9899 70.2507 86.4799 70.4707 86.8899 71.2107C87.9799 73.1907 89.1599 75.1307 90.3199 77.1207C62.0899 77.1207 33.9999 77.1207 5.60986 77.1207C19.7799 52.4807 33.8199 28.0707 47.9699 3.4707Z" fill="#E0E0E0"/>
<path d="M55.2301 16.2715C57.2101 19.6915 59.0401 22.8315 60.8601 25.9715C62.1801 28.2515 63.4901 30.5415 64.8201 32.8215C65.0801 33.2615 65.3201 33.6615 64.6901 34.0115C62.9601 35.0015 61.2401 36.0015 59.4101 37.0615C58.1301 34.8315 56.9101 32.6915 55.4901 30.2015C49.7001 39.8315 44.0601 49.1915 38.2901 58.7815C49.4901 58.7815 60.3601 58.7815 71.5501 58.7815C70.1401 56.2215 68.8101 53.8015 67.4101 51.2615C69.4001 50.1115 71.3201 48.9915 73.4601 47.7515C76.9201 53.7315 80.3501 59.6515 83.8601 65.7115C64.6001 65.7115 45.4901 65.7115 26.0601 65.7115C35.8201 49.1615 45.4501 32.8415 55.2301 16.2715Z" fill="#EEEEEE"/>
<path d="M251.97 1.4707C253.51 4.1807 254.96 6.6907 256.34 9.2507C256.5 9.5407 256.26 10.1507 256.05 10.5207C250.44 20.1907 244.8 29.8607 239.17 39.5207C233.86 48.6307 228.55 57.7407 223.24 66.8507C223.04 67.1907 222.86 67.5407 222.58 68.0707C223.11 68.0907 223.52 68.1307 223.93 68.1307C239.96 68.1507 256 68.1707 272.03 68.2007C277.75 68.2107 283.47 68.2607 289.18 68.2507C289.99 68.2507 290.48 68.4707 290.89 69.2107C291.98 71.1907 293.16 73.1307 294.32 75.1207C266.09 75.1207 238 75.1207 209.61 75.1207C223.78 50.4807 237.82 26.0707 251.97 1.4707Z" fill="#E0E0E0"/>
<path d="M259.23 14.2715C261.21 17.6915 263.04 20.8315 264.86 23.9715C266.18 26.2515 267.49 28.5415 268.82 30.8215C269.08 31.2615 269.32 31.6615 268.69 32.0115C266.96 33.0015 265.24 34.0015 263.41 35.0615C262.13 32.8315 260.91 30.6915 259.49 28.2015C253.7 37.8315 248.06 47.1915 242.29 56.7815C253.49 56.7815 264.36 56.7815 275.55 56.7815C274.14 54.2215 272.81 51.8015 271.41 49.2615C273.4 48.1115 275.32 46.9915 277.46 45.7515C280.92 51.7315 284.35 57.6515 287.86 63.7115C268.6 63.7115 249.49 63.7115 230.06 63.7115C239.82 47.1615 249.45 30.8415 259.23 14.2715Z" fill="#EEEEEE"/>
<path d="M149.97 85.4707C151.51 88.1807 152.96 90.6907 154.34 93.2507C154.5 93.5407 154.26 94.1507 154.05 94.5207C148.44 104.191 142.8 113.861 137.17 123.521C131.86 132.631 126.55 141.741 121.24 150.851C121.04 151.191 120.86 151.541 120.58 152.071C121.11 152.091 121.52 152.131 121.93 152.131C137.96 152.151 154 152.171 170.03 152.201C175.75 152.211 181.47 152.261 187.18 152.251C187.99 152.251 188.48 152.471 188.89 153.211C189.98 155.191 191.16 157.131 192.32 159.121C164.09 159.121 136 159.121 107.61 159.121C121.78 134.481 135.82 110.071 149.97 85.4707Z" fill="#E0E0E0"/>
<path d="M157.23 98.2715C159.21 101.691 161.04 104.831 162.86 107.971C164.18 110.251 165.49 112.541 166.82 114.821C167.08 115.261 167.32 115.661 166.69 116.011C164.96 117.001 163.24 118.001 161.41 119.061C160.13 116.831 158.91 114.691 157.49 112.201C151.7 121.831 146.06 131.191 140.29 140.781C151.49 140.781 162.36 140.781 173.55 140.781C172.14 138.221 170.81 135.801 169.41 133.261C171.4 132.111 173.32 130.991 175.46 129.751C178.92 135.731 182.35 141.651 185.86 147.711C166.6 147.711 147.49 147.711 128.06 147.711C137.82 131.161 147.45 114.841 157.23 98.2715Z" fill="#EEEEEE"/>
<path d="M355.97 83.4707C357.51 86.1807 358.96 88.6907 360.34 91.2507C360.5 91.5407 360.26 92.1507 360.05 92.5207C354.44 102.191 348.8 111.861 343.17 121.521C337.86 130.631 332.55 139.741 327.24 148.851C327.04 149.191 326.86 149.541 326.58 150.071C327.11 150.091 327.52 150.131 327.93 150.131C343.96 150.151 360 150.171 376.03 150.201C381.75 150.211 387.47 150.261 393.18 150.251C393.99 150.251 394.48 150.471 394.89 151.211C395.98 153.191 397.16 155.131 398.32 157.121C370.09 157.121 342 157.121 313.61 157.121C327.78 132.481 341.82 108.071 355.97 83.4707Z" fill="#E0E0E0"/>
<path d="M363.23 96.2715C365.21 99.6915 367.04 102.831 368.86 105.971C370.18 108.251 371.49 110.541 372.82 112.821C373.08 113.261 373.32 113.661 372.69 114.011C370.96 115.001 369.24 116.001 367.41 117.061C366.13 114.831 364.91 112.691 363.49 110.201C357.7 119.831 352.06 129.191 346.29 138.781C357.49 138.781 368.36 138.781 379.55 138.781C378.14 136.221 376.81 133.801 375.41 131.261C377.4 130.111 379.32 128.991 381.46 127.751C384.92 133.731 388.35 139.651 391.86 145.711C372.6 145.711 353.49 145.711 334.06 145.711C343.82 129.161 353.45 112.841 363.23 96.2715Z" fill="#EEEEEE"/>
<path d="M47.9699 3.4707C49.5099 6.1807 50.9599 8.6907 52.3399 11.2507C52.4999 11.5407 52.2599 12.1507 52.0499 12.5207C46.4399 22.1907 40.7999 31.8607 35.1699 41.5207C29.8599 50.6307 24.5499 59.7407 19.2399 68.8507C19.0399 69.1907 18.8599 69.5407 18.5799 70.0707C19.1099 70.0907 19.5199 70.1307 19.9299 70.1307C35.9599 70.1507 51.9999 70.1707 68.0299 70.2007C73.7499 70.2107 79.4699 70.2607 85.1799 70.2507C85.9899 70.2507 86.4799 70.4707 86.8899 71.2107C87.9799 73.1907 89.1599 75.1307 90.3199 77.1207C62.0899 77.1207 33.9999 77.1207 5.60986 77.1207C19.7799 52.4807 33.8199 28.0707 47.9699 3.4707Z" fill="#E0E0E0"/>
<path d="M55.2301 16.2715C57.2101 19.6915 59.0401 22.8315 60.8601 25.9715C62.1801 28.2515 63.4901 30.5415 64.8201 32.8215C65.0801 33.2615 65.3201 33.6615 64.6901 34.0115C62.9601 35.0015 61.2401 36.0015 59.4101 37.0615C58.1301 34.8315 56.9101 32.6915 55.4901 30.2015C49.7001 39.8315 44.0601 49.1915 38.2901 58.7815C49.4901 58.7815 60.3601 58.7815 71.5501 58.7815C70.1401 56.2215 68.8101 53.8015 67.4101 51.2615C69.4001 50.1115 71.3201 48.9915 73.4601 47.7515C76.9201 53.7315 80.3501 59.6515 83.8601 65.7115C64.6001 65.7115 45.4901 65.7115 26.0601 65.7115C35.8201 49.1615 45.4501 32.8415 55.2301 16.2715Z" fill="#EEEEEE"/>
<path d="M251.97 1.4707C253.51 4.1807 254.96 6.6907 256.34 9.2507C256.5 9.5407 256.26 10.1507 256.05 10.5207C250.44 20.1907 244.8 29.8607 239.17 39.5207C233.86 48.6307 228.55 57.7407 223.24 66.8507C223.04 67.1907 222.86 67.5407 222.58 68.0707C223.11 68.0907 223.52 68.1307 223.93 68.1307C239.96 68.1507 256 68.1707 272.03 68.2007C277.75 68.2107 283.47 68.2607 289.18 68.2507C289.99 68.2507 290.48 68.4707 290.89 69.2107C291.98 71.1907 293.16 73.1307 294.32 75.1207C266.09 75.1207 238 75.1207 209.61 75.1207C223.78 50.4807 237.82 26.0707 251.97 1.4707Z" fill="#E0E0E0"/>
<path d="M259.23 14.2715C261.21 17.6915 263.04 20.8315 264.86 23.9715C266.18 26.2515 267.49 28.5415 268.82 30.8215C269.08 31.2615 269.32 31.6615 268.69 32.0115C266.96 33.0015 265.24 34.0015 263.41 35.0615C262.13 32.8315 260.91 30.6915 259.49 28.2015C253.7 37.8315 248.06 47.1915 242.29 56.7815C253.49 56.7815 264.36 56.7815 275.55 56.7815C274.14 54.2215 272.81 51.8015 271.41 49.2615C273.4 48.1115 275.32 46.9915 277.46 45.7515C280.92 51.7315 284.35 57.6515 287.86 63.7115C268.6 63.7115 249.49 63.7115 230.06 63.7115C239.82 47.1615 249.45 30.8415 259.23 14.2715Z" fill="#EEEEEE"/>
<path d="M149.97 85.4707C151.51 88.1807 152.96 90.6907 154.34 93.2507C154.5 93.5407 154.26 94.1507 154.05 94.5207C148.44 104.191 142.8 113.861 137.17 123.521C131.86 132.631 126.55 141.741 121.24 150.851C121.04 151.191 120.86 151.541 120.58 152.071C121.11 152.091 121.52 152.131 121.93 152.131C137.96 152.151 154 152.171 170.03 152.201C175.75 152.211 181.47 152.261 187.18 152.251C187.99 152.251 188.48 152.471 188.89 153.211C189.98 155.191 191.16 157.131 192.32 159.121C164.09 159.121 136 159.121 107.61 159.121C121.78 134.481 135.82 110.071 149.97 85.4707Z" fill="#E0E0E0"/>
<path d="M157.23 98.2715C159.21 101.691 161.04 104.831 162.86 107.971C164.18 110.251 165.49 112.541 166.82 114.821C167.08 115.261 167.32 115.661 166.69 116.011C164.96 117.001 163.24 118.001 161.41 119.061C160.13 116.831 158.91 114.691 157.49 112.201C151.7 121.831 146.06 131.191 140.29 140.781C151.49 140.781 162.36 140.781 173.55 140.781C172.14 138.221 170.81 135.801 169.41 133.261C171.4 132.111 173.32 130.991 175.46 129.751C178.92 135.731 182.35 141.651 185.86 147.711C166.6 147.711 147.49 147.711 128.06 147.711C137.82 131.161 147.45 114.841 157.23 98.2715Z" fill="#EEEEEE"/>
<path d="M355.97 83.4707C357.51 86.1807 358.96 88.6907 360.34 91.2507C360.5 91.5407 360.26 92.1507 360.05 92.5207C354.44 102.191 348.8 111.861 343.17 121.521C337.86 130.631 332.55 139.741 327.24 148.851C327.04 149.191 326.86 149.541 326.58 150.071C327.11 150.091 327.52 150.131 327.93 150.131C343.96 150.151 360 150.171 376.03 150.201C381.75 150.211 387.47 150.261 393.18 150.251C393.99 150.251 394.48 150.471 394.89 151.211C395.98 153.191 397.16 155.131 398.32 157.121C370.09 157.121 342 157.121 313.61 157.121C327.78 132.481 341.82 108.071 355.97 83.4707Z" fill="#E0E0E0"/>
<path d="M363.23 96.2715C365.21 99.6915 367.04 102.831 368.86 105.971C370.18 108.251 371.49 110.541 372.82 112.821C373.08 113.261 373.32 113.661 372.69 114.011C370.96 115.001 369.24 116.001 367.41 117.061C366.13 114.831 364.91 112.691 363.49 110.201C357.7 119.831 352.06 129.191 346.29 138.781C357.49 138.781 368.36 138.781 379.55 138.781C378.14 136.221 376.81 133.801 375.41 131.261C377.4 130.111 379.32 128.991 381.46 127.751C384.92 133.731 388.35 139.651 391.86 145.711C372.6 145.711 353.49 145.711 334.06 145.711C343.82 129.161 353.45 112.841 363.23 96.2715Z" fill="#EEEEEE"/>
</g>
<defs>
<clipPath id="clip0_915_256">
<rect width="398" height="159" fill="white"/>
</clipPath>
</defs>
</svg>
