<svg width="388" height="205" viewBox="0 0 388 205" fill="none" xmlns="http://www.w3.org/2000/svg" opacity="0.25">
<path d="M272.59 5.00004C276.756 12.3451 280.678 19.1481 284.412 26.0866C284.844 26.8727 284.195 28.526 283.627 29.5288C268.451 55.738 253.194 81.9472 237.964 108.129C223.6 132.821 209.236 157.512 194.871 182.203C194.33 183.125 193.843 184.074 193.086 185.51C194.519 185.564 195.629 185.673 196.738 185.673C240.101 185.727 283.492 185.781 326.855 185.862C342.329 185.89 357.802 186.025 373.249 185.998C375.44 185.998 376.765 186.594 377.874 188.6C380.823 193.966 384.015 199.225 387.153 204.618C310.787 204.618 234.799 204.618 158 204.618C196.332 137.835 234.312 71.6749 272.59 5.00004Z" fill="#191919"/>
<path d="M292.229 39.6932C297.586 48.9626 302.536 57.4732 307.459 65.9837C311.03 72.1633 314.574 78.3701 318.172 84.5497C318.875 85.7423 319.524 86.8264 317.82 87.775C313.14 90.4583 308.487 93.1687 303.537 96.0416C300.074 89.9975 296.774 84.1974 292.933 77.4486C277.27 103.549 262.013 128.918 246.404 154.911C276.702 154.911 306.107 154.911 336.377 154.911C332.563 147.972 328.965 141.413 325.178 134.529C330.561 131.412 335.755 128.376 341.544 125.015C350.904 141.223 360.183 157.269 369.678 173.693C317.577 173.693 265.881 173.693 213.32 173.693C239.722 128.837 265.773 84.6039 292.229 39.6932Z" fill="#5F5F5F"/>
<path d="M112.158 195.382C116.236 188.193 120.075 181.534 123.729 174.743C124.153 173.973 123.517 172.355 122.961 171.374C108.107 145.721 93.174 120.068 78.2672 94.4412C64.2077 70.2738 50.1482 46.1064 36.0887 21.939C35.5591 21.0371 35.0826 20.1086 34.3412 18.7025C35.7445 18.6495 36.8301 18.5434 37.9156 18.5434C80.3589 18.4903 122.829 18.4373 165.272 18.3577C180.417 18.3312 195.562 18.1985 210.681 18.225C212.825 18.225 214.123 17.6414 215.208 15.6783C218.094 10.4257 221.219 5.27916 224.29 0C149.544 0 75.1693 0 0 0C37.5185 65.366 74.6927 130.122 112.158 195.382Z" fill="#191919"/>
<path d="M131.381 161.425C136.623 152.352 141.469 144.022 146.288 135.692C149.783 129.644 153.251 123.569 156.773 117.52C157.461 116.353 158.096 115.292 156.428 114.363C151.848 111.737 147.294 109.084 142.448 106.272C139.059 112.188 135.829 117.865 132.069 124.471C116.739 98.9238 101.806 74.0932 86.5281 48.6524C116.183 48.6524 144.964 48.6524 174.592 48.6524C170.859 55.4437 167.337 61.8636 163.63 68.6018C168.899 71.6526 173.983 74.6238 179.649 77.9133C188.81 62.0493 197.892 46.3444 207.186 30.2682C156.19 30.2682 105.592 30.2682 54.1462 30.2682C79.9881 74.1728 105.486 117.467 131.381 161.425Z" fill="#5F5F5F"/>
</svg>
